<?xml version="1.0" encoding="utf-8"?>
<!-- Generator: Adobe Illustrator 17.1.0, SVG Export Plug-In . SVG Version: 6.00 Build 0)  -->
<!DOCTYPE svg PUBLIC "-//W3C//DTD SVG 1.1//EN" "http://www.w3.org/Graphics/SVG/1.1/DTD/svg11.dtd">
<svg version="1.1" id="Capa_1" xmlns="http://www.w3.org/2000/svg" xmlns:xlink="http://www.w3.org/1999/xlink" x="0px" y="0px"
	 viewBox="0 0 257.6 163.6" enable-background="new 0 0 257.6 163.6" xml:space="preserve">
<g>
	<g>
		<g>
			<path fill="#F7F7F7" d="M214,32.5c0,0-2.4,1.5-6.2,4c-1-0.7-1.8-1.9-0.7-4.3c3.3-1.9,6.6-3.6,9.9-4.8c0,0,2-5.1-4.7-3.3
				c0,0-11.3,4.9-23.3,14.1c-2.3,1.8-4.6,3.7-6.9,5.7c-4.6,4.2-9.1,9-12.8,14.5c0,0-1.6,3.8,4.6-0.5c0,0,3.2-3.1,8.2-7.4
				c2-1.7,4.3-3.7,6.9-5.7c2.9-2.3,6.1-4.7,9.4-7c1,0.5,2.3,1.5,2.3,3.5c-3.5,2.4-7.5,5.2-11.6,8.2c-2.3,1.7-4.6,3.4-6.9,5.1
				c-11.3,8.7-22.4,18.4-26.5,25.9l13.7,15c0,0,5.7-4.3,13.2-10.8c2.2-1.9,4.5-3.9,6.9-6.1c14.3-13,31-30.8,31.3-42.8
				C220.8,35.8,221.5,29.4,214,32.5"/>
			<path fill="#F7F7F7" d="M140.7,101.1c-3.1,5.3-3.2,7.4-3.2,7.4c-0.3,0.3-0.4,0.6-0.4,0.9c0.2,2,5.5,5.3,5.5,5.3
				c1.9-1,5.2-3.1,8.6-5.5c4.2-2.9,8.7-6.3,11.7-8.5c1.9-1.4,3.1-2.3,3.1-2.3l-13.3-13.7C146.5,92,142.8,97.4,140.7,101.1"/>
			<path fill="#F7F7F7" d="M135.4,111c0,0,0.8,3.8,5.1,5.4l-11.9,7l-1.4-1.6L135.4,111z"/>
		</g>
		<g>
			<path fill="#F7F7F7" d="M137.6,71.4c0-0.2,0.1-0.4,0.1-0.6c-0.8,3.8-1.8,7.7-3,11.6c14.6-3.2,31.8-20.3,29.7-39.9
				c-1.2-11.1-10-18.8-23.5-18.4c0.2,3.2,0.4,6.7,0.4,10.5C165.8,34.2,153.6,69.1,137.6,71.4z"/>
			<path fill="#F7F7F7" d="M135.2,4H39.5c0,0-15,66.7,26,119.5h43.2C150.8,74.9,135.2,4,135.2,4z"/>
		</g>
	</g>
	<g>
		<g>
			<path fill="#F7F7F7" d="M45,151.5v7.9h-1.4v-19.7h5.1c2.3,0,4,0.5,5.2,1.5c1.2,1,1.8,2.5,1.8,4.3c0,0.9-0.2,1.7-0.5,2.4
				c-0.3,0.7-0.8,1.3-1.4,1.9s-1.3,0.9-2.2,1.2s-1.8,0.4-2.9,0.4H45z M45,150.4h3.7c0.9,0,1.6-0.1,2.3-0.4c0.7-0.2,1.3-0.6,1.7-1
				s0.8-0.9,1.1-1.5s0.4-1.2,0.4-1.9c0-1.5-0.5-2.7-1.4-3.5c-0.9-0.8-2.3-1.2-4.2-1.2H45V150.4z"/>
			<path fill="#F7F7F7" d="M59,159.4v-13.8h0.7c0.2,0,0.3,0,0.3,0.1c0.1,0.1,0.1,0.2,0.1,0.3l0.1,2.9c0.4-1.1,1-2,1.8-2.6
				c0.7-0.6,1.7-1,2.7-1c0.4,0,0.8,0,1.2,0.1c0.4,0.1,0.7,0.2,1,0.4l-0.2,0.9c0,0.1-0.1,0.2-0.3,0.2c-0.1,0-0.1,0-0.2-0.1
				c-0.1,0-0.2-0.1-0.4-0.1c-0.2,0-0.3-0.1-0.6-0.1c-0.2,0-0.5-0.1-0.8-0.1c-1,0-1.9,0.3-2.6,1c-0.7,0.6-1.2,1.6-1.6,2.8v9H59z"/>
			<path fill="#F7F7F7" d="M75.3,145.4c1,0,1.9,0.2,2.7,0.5c0.8,0.3,1.4,0.8,2,1.4c0.5,0.6,0.9,1.4,1.2,2.2c0.3,0.9,0.4,1.9,0.4,2.9
				c0,1.1-0.1,2.1-0.4,2.9c-0.3,0.9-0.7,1.6-1.2,2.2c-0.5,0.6-1.2,1.1-2,1.4c-0.8,0.3-1.7,0.5-2.7,0.5s-1.9-0.2-2.7-0.5
				c-0.8-0.3-1.4-0.8-2-1.4c-0.5-0.6-1-1.4-1.2-2.2c-0.3-0.9-0.4-1.8-0.4-2.9c0-1.1,0.1-2.1,0.4-2.9c0.3-0.9,0.7-1.6,1.2-2.2
				c0.5-0.6,1.2-1.1,2-1.4C73.4,145.6,74.3,145.4,75.3,145.4z M75.3,158.6c0.8,0,1.5-0.1,2.2-0.4c0.6-0.3,1.1-0.7,1.5-1.2
				c0.4-0.5,0.7-1.2,0.9-1.9c0.2-0.7,0.3-1.6,0.3-2.5c0-0.9-0.1-1.8-0.3-2.5c-0.2-0.8-0.5-1.4-0.9-1.9c-0.4-0.5-0.9-0.9-1.5-1.2
				c-0.6-0.3-1.3-0.4-2.2-0.4c-0.8,0-1.5,0.1-2.2,0.4c-0.6,0.3-1.1,0.7-1.5,1.2c-0.4,0.5-0.7,1.2-0.9,1.9c-0.2,0.8-0.3,1.6-0.3,2.5
				c0,0.9,0.1,1.8,0.3,2.5c0.2,0.7,0.5,1.4,0.9,1.9s0.9,0.9,1.5,1.2C73.7,158.4,74.4,158.6,75.3,158.6z"/>
			<path fill="#F7F7F7" d="M85,159.4v-13.8h0.7c0.2,0,0.4,0.1,0.4,0.3l0.1,2c0.3-0.4,0.6-0.7,0.9-1c0.3-0.3,0.6-0.6,1-0.8
				c0.3-0.2,0.7-0.4,1.1-0.5c0.4-0.1,0.8-0.2,1.2-0.2c1,0,1.8,0.3,2.4,0.9c0.6,0.6,1,1.4,1.2,2.5c0.2-0.6,0.4-1.1,0.7-1.5
				c0.3-0.4,0.6-0.8,1-1c0.4-0.3,0.8-0.5,1.3-0.6c0.5-0.1,0.9-0.2,1.4-0.2c0.7,0,1.3,0.1,1.8,0.3c0.5,0.2,1,0.6,1.4,1
				c0.4,0.4,0.7,1,0.9,1.6s0.3,1.4,0.3,2.2v8.8h-1.3v-8.8c0-1.4-0.3-2.4-0.9-3.1s-1.4-1.1-2.5-1.1c-0.5,0-0.9,0.1-1.4,0.3
				c-0.4,0.2-0.8,0.4-1.2,0.8c-0.3,0.3-0.6,0.8-0.8,1.3c-0.2,0.5-0.3,1.1-0.3,1.8v8.8h-1.3v-8.8c0-1.3-0.3-2.4-0.8-3.1
				c-0.5-0.7-1.3-1.1-2.3-1.1c-0.8,0-1.4,0.2-2.1,0.7s-1.2,1.1-1.7,1.9v10.4H85z"/>
			<path fill="#F7F7F7" d="M112.4,145.4c1,0,1.9,0.2,2.7,0.5c0.8,0.3,1.4,0.8,2,1.4c0.5,0.6,0.9,1.4,1.2,2.2
				c0.3,0.9,0.4,1.9,0.4,2.9c0,1.1-0.1,2.1-0.4,2.9c-0.3,0.9-0.7,1.6-1.2,2.2c-0.5,0.6-1.2,1.1-2,1.4c-0.8,0.3-1.7,0.5-2.7,0.5
				s-1.9-0.2-2.7-0.5c-0.8-0.3-1.4-0.8-2-1.4c-0.5-0.6-1-1.4-1.2-2.2c-0.3-0.9-0.4-1.8-0.4-2.9c0-1.1,0.1-2.1,0.4-2.9
				c0.3-0.9,0.7-1.6,1.2-2.2c0.5-0.6,1.2-1.1,2-1.4C110.5,145.6,111.4,145.4,112.4,145.4z M112.4,158.6c0.8,0,1.5-0.1,2.2-0.4
				c0.6-0.3,1.1-0.7,1.5-1.2c0.4-0.5,0.7-1.2,0.9-1.9c0.2-0.7,0.3-1.6,0.3-2.5c0-0.9-0.1-1.8-0.3-2.5c-0.2-0.8-0.5-1.4-0.9-1.9
				c-0.4-0.5-0.9-0.9-1.5-1.2c-0.6-0.3-1.3-0.4-2.2-0.4c-0.8,0-1.5,0.1-2.2,0.4c-0.6,0.3-1.1,0.7-1.5,1.2c-0.4,0.5-0.7,1.2-0.9,1.9
				c-0.2,0.8-0.3,1.6-0.3,2.5c0,0.9,0.1,1.8,0.3,2.5c0.2,0.7,0.5,1.4,0.9,1.9s0.9,0.9,1.5,1.2C110.9,158.4,111.6,158.6,112.4,158.6z
				"/>
			<path fill="#F7F7F7" d="M131.3,147.5c0,0-0.1,0.1-0.1,0.1c0,0-0.1,0-0.2,0c-0.1,0-0.2-0.1-0.4-0.2s-0.4-0.3-0.6-0.4
				c-0.3-0.1-0.6-0.3-1-0.4c-0.4-0.1-0.9-0.2-1.5-0.2c-0.8,0-1.5,0.1-2.1,0.4c-0.6,0.3-1.1,0.7-1.6,1.2c-0.4,0.5-0.7,1.2-1,1.9
				c-0.2,0.8-0.3,1.6-0.3,2.5c0,1,0.1,1.8,0.3,2.6c0.2,0.8,0.5,1.4,1,1.9c0.4,0.5,0.9,0.9,1.5,1.2s1.3,0.4,2,0.4
				c0.7,0,1.2-0.1,1.7-0.2s0.8-0.3,1.1-0.5c0.3-0.2,0.5-0.4,0.7-0.5s0.3-0.2,0.4-0.2c0.1,0,0.2,0,0.3,0.1l0.4,0.4
				c-0.2,0.3-0.5,0.5-0.8,0.8c-0.3,0.2-0.7,0.4-1.1,0.6s-0.9,0.3-1.3,0.4c-0.5,0.1-1,0.1-1.5,0.1c-0.9,0-1.7-0.2-2.4-0.5
				s-1.4-0.8-1.9-1.4c-0.5-0.6-0.9-1.3-1.2-2.2c-0.3-0.9-0.4-1.9-0.4-3c0-1.1,0.1-2,0.4-2.9s0.7-1.6,1.2-2.3c0.5-0.6,1.2-1.1,2-1.5
				s1.7-0.5,2.7-0.5c0.9,0,1.7,0.1,2.4,0.4s1.3,0.7,1.8,1.2L131.3,147.5z"/>
			<path fill="#F7F7F7" d="M137.1,140.9c0,0.2,0,0.3-0.1,0.5s-0.2,0.3-0.3,0.4c-0.1,0.1-0.2,0.2-0.4,0.3c-0.1,0.1-0.3,0.1-0.5,0.1
				c-0.2,0-0.3,0-0.5-0.1c-0.1-0.1-0.3-0.2-0.4-0.3c-0.1-0.1-0.2-0.2-0.3-0.4c-0.1-0.1-0.1-0.3-0.1-0.5c0-0.2,0-0.3,0.1-0.5
				c0.1-0.2,0.2-0.3,0.3-0.4c0.1-0.1,0.2-0.2,0.4-0.3c0.1-0.1,0.3-0.1,0.5-0.1c0.2,0,0.3,0,0.5,0.1c0.1,0.1,0.3,0.2,0.4,0.3
				s0.2,0.2,0.3,0.4C137.1,140.5,137.1,140.7,137.1,140.9z M136.5,145.6v13.8h-1.3v-13.8H136.5z"/>
			<path fill="#F7F7F7" d="M146.7,145.4c1,0,1.9,0.2,2.7,0.5c0.8,0.3,1.4,0.8,2,1.4c0.5,0.6,0.9,1.4,1.2,2.2
				c0.3,0.9,0.4,1.9,0.4,2.9c0,1.1-0.1,2.1-0.4,2.9c-0.3,0.9-0.7,1.6-1.2,2.2c-0.5,0.6-1.2,1.1-2,1.4c-0.8,0.3-1.7,0.5-2.7,0.5
				s-1.9-0.2-2.7-0.5c-0.8-0.3-1.4-0.8-2-1.4c-0.5-0.6-1-1.4-1.2-2.2c-0.3-0.9-0.4-1.8-0.4-2.9c0-1.1,0.1-2.1,0.4-2.9
				c0.3-0.9,0.7-1.6,1.2-2.2c0.5-0.6,1.2-1.1,2-1.4C144.8,145.6,145.7,145.4,146.7,145.4z M146.7,158.6c0.8,0,1.5-0.1,2.2-0.4
				c0.6-0.3,1.1-0.7,1.5-1.2c0.4-0.5,0.7-1.2,0.9-1.9c0.2-0.7,0.3-1.6,0.3-2.5c0-0.9-0.1-1.8-0.3-2.5c-0.2-0.8-0.5-1.4-0.9-1.9
				c-0.4-0.5-0.9-0.9-1.5-1.2c-0.6-0.3-1.3-0.4-2.2-0.4c-0.8,0-1.5,0.1-2.2,0.4c-0.6,0.3-1.1,0.7-1.5,1.2c-0.4,0.5-0.7,1.2-0.9,1.9
				c-0.2,0.8-0.3,1.6-0.3,2.5c0,0.9,0.1,1.8,0.3,2.5c0.2,0.7,0.5,1.4,0.9,1.9s0.9,0.9,1.5,1.2C145.1,158.4,145.9,158.6,146.7,158.6z
				"/>
			<path fill="#F7F7F7" d="M156.5,159.4v-13.8h0.7c0.2,0,0.4,0.1,0.4,0.3l0.1,2.1c0.6-0.8,1.4-1.4,2.2-1.9s1.8-0.7,2.8-0.7
				c0.8,0,1.4,0.1,2,0.4c0.6,0.2,1.1,0.6,1.4,1c0.4,0.5,0.7,1,0.9,1.6c0.2,0.6,0.3,1.4,0.3,2.2v8.8H166v-8.8c0-1.3-0.3-2.3-0.9-3
				s-1.5-1.1-2.7-1.1c-0.9,0-1.8,0.2-2.5,0.7c-0.8,0.5-1.5,1.1-2.1,1.9v10.4H156.5z"/>
			<path fill="#F7F7F7" d="M180.3,159.4c-0.3,0-0.4-0.1-0.5-0.4l-0.2-1.8c-0.4,0.4-0.8,0.7-1.1,1c-0.4,0.3-0.8,0.5-1.2,0.8
				c-0.4,0.2-0.8,0.4-1.3,0.5c-0.5,0.1-1,0.2-1.6,0.2c-0.5,0-0.9-0.1-1.4-0.2c-0.4-0.1-0.8-0.4-1.2-0.6s-0.6-0.7-0.8-1.1
				s-0.3-1-0.3-1.6c0-0.6,0.2-1.1,0.5-1.6c0.3-0.5,0.9-0.9,1.6-1.3c0.7-0.4,1.6-0.7,2.7-0.9c1.1-0.2,2.5-0.4,4-0.4v-1.4
				c0-1.3-0.3-2.3-0.8-3c-0.6-0.7-1.4-1-2.5-1c-0.7,0-1.2,0.1-1.7,0.3c-0.5,0.2-0.9,0.4-1.2,0.6c-0.3,0.2-0.6,0.4-0.8,0.6
				c-0.2,0.2-0.4,0.3-0.5,0.3c-0.2,0-0.3-0.1-0.4-0.2l-0.2-0.4c0.7-0.7,1.5-1.3,2.3-1.6c0.8-0.4,1.7-0.6,2.7-0.6
				c0.7,0,1.4,0.1,1.9,0.4c0.6,0.2,1,0.6,1.4,1c0.4,0.4,0.6,1,0.8,1.6c0.2,0.6,0.3,1.3,0.3,2.1v9H180.3z M174.8,158.7
				c0.5,0,1-0.1,1.5-0.2c0.4-0.1,0.9-0.3,1.3-0.5c0.4-0.2,0.7-0.5,1.1-0.7s0.7-0.6,1-0.9v-3.6c-1.3,0-2.4,0.1-3.4,0.3
				c-0.9,0.2-1.7,0.4-2.3,0.7c-0.6,0.3-1.1,0.6-1.4,1c-0.3,0.4-0.4,0.8-0.4,1.3c0,0.5,0.1,0.9,0.2,1.2s0.4,0.6,0.6,0.8
				s0.5,0.4,0.9,0.5C174,158.7,174.4,158.7,174.8,158.7z"/>
			<path fill="#F7F7F7" d="M186.7,139.2v20.2h-1.3v-20.2H186.7z"/>
			<path fill="#F7F7F7" d="M196.8,145.4c0.8,0,1.5,0.1,2.2,0.4s1.2,0.7,1.7,1.2c0.5,0.5,0.9,1.1,1.1,1.9c0.3,0.8,0.4,1.6,0.4,2.6
				c0,0.2,0,0.3-0.1,0.4c-0.1,0.1-0.2,0.1-0.3,0.1h-10v0.3c0,1,0.1,2,0.4,2.7s0.6,1.4,1,2c0.4,0.5,1,0.9,1.6,1.2s1.3,0.4,2.1,0.4
				c0.7,0,1.3-0.1,1.8-0.2c0.5-0.2,0.9-0.3,1.3-0.5c0.3-0.2,0.6-0.4,0.8-0.5c0.2-0.2,0.4-0.2,0.4-0.2c0.1,0,0.2,0,0.3,0.1l0.4,0.4
				c-0.2,0.3-0.5,0.5-0.9,0.8c-0.4,0.2-0.8,0.4-1.2,0.6c-0.4,0.2-0.9,0.3-1.4,0.4c-0.5,0.1-1,0.2-1.5,0.2c-0.9,0-1.8-0.2-2.6-0.5
				c-0.8-0.3-1.4-0.8-2-1.4s-1-1.4-1.3-2.3c-0.3-0.9-0.5-2-0.5-3.1c0-1,0.1-1.9,0.4-2.7c0.3-0.8,0.7-1.6,1.2-2.2s1.2-1.1,2-1.4
				C195,145.6,195.8,145.4,196.8,145.4z M196.8,146.4c-0.7,0-1.4,0.1-1.9,0.3c-0.6,0.2-1.1,0.5-1.5,1s-0.7,0.9-1,1.5
				c-0.3,0.6-0.4,1.2-0.5,2h9.1c0-0.7-0.1-1.4-0.3-2s-0.5-1.1-0.9-1.5c-0.4-0.4-0.8-0.7-1.3-0.9S197.5,146.4,196.8,146.4z"/>
			<path fill="#F7F7F7" d="M213.4,147.3c-0.1,0.1-0.2,0.2-0.3,0.2c-0.1,0-0.2-0.1-0.4-0.2c-0.2-0.1-0.4-0.2-0.6-0.4s-0.6-0.3-1-0.4
				c-0.4-0.1-0.9-0.2-1.4-0.2c-0.5,0-1,0.1-1.4,0.2c-0.4,0.1-0.8,0.3-1.1,0.6c-0.3,0.2-0.5,0.5-0.7,0.8c-0.2,0.3-0.2,0.7-0.2,1
				c0,0.4,0.1,0.8,0.3,1.1c0.2,0.3,0.5,0.5,0.9,0.7c0.4,0.2,0.8,0.4,1.2,0.5c0.5,0.1,0.9,0.3,1.4,0.4s1,0.3,1.4,0.5
				c0.5,0.2,0.9,0.4,1.2,0.7s0.7,0.6,0.9,1c0.2,0.4,0.3,0.9,0.3,1.4c0,0.6-0.1,1.2-0.3,1.7c-0.2,0.5-0.5,1-0.9,1.3
				c-0.4,0.4-0.9,0.7-1.5,0.9c-0.6,0.2-1.3,0.3-2.1,0.3c-1,0-1.8-0.2-2.5-0.5c-0.7-0.3-1.3-0.7-1.9-1.2l0.3-0.5
				c0-0.1,0.1-0.1,0.2-0.2s0.1-0.1,0.2-0.1c0.1,0,0.3,0.1,0.4,0.2c0.2,0.1,0.4,0.3,0.7,0.5c0.3,0.2,0.6,0.3,1.1,0.5
				c0.4,0.1,0.9,0.2,1.6,0.2c0.6,0,1.1-0.1,1.5-0.2c0.4-0.2,0.8-0.4,1.1-0.7c0.3-0.3,0.5-0.6,0.7-1s0.2-0.8,0.2-1.2
				c0-0.5-0.1-0.8-0.3-1.2s-0.5-0.6-0.9-0.8c-0.4-0.2-0.8-0.4-1.2-0.5c-0.5-0.1-0.9-0.3-1.4-0.4c-0.5-0.1-1-0.3-1.4-0.5
				c-0.5-0.2-0.9-0.4-1.2-0.7c-0.4-0.3-0.7-0.6-0.9-1c-0.2-0.4-0.3-0.9-0.3-1.4c0-0.5,0.1-1,0.3-1.4c0.2-0.5,0.5-0.9,0.9-1.2
				s0.9-0.6,1.4-0.8c0.6-0.2,1.2-0.3,1.9-0.3c0.8,0,1.6,0.1,2.2,0.4c0.7,0.2,1.3,0.6,1.8,1.1L213.4,147.3z"/>
		</g>
	</g>
</g>
</svg>
