<?xml version="1.0" encoding="utf-8"?>
<!-- Generator: Adobe Illustrator 17.1.0, SVG Export Plug-In . SVG Version: 6.00 Build 0)  -->
<!DOCTYPE svg PUBLIC "-//W3C//DTD SVG 1.1//EN" "http://www.w3.org/Graphics/SVG/1.1/DTD/svg11.dtd">
<svg version="1.1" id="Capa_1" xmlns="http://www.w3.org/2000/svg" xmlns:xlink="http://www.w3.org/1999/xlink" x="0px" y="0px"
	 viewBox="0 0 257.6 163.6" enable-background="new 0 0 257.6 163.6" xml:space="preserve">
<g>
	<g>
		<g>
			<path fill="#F7F7F7" d="M68.7,142.2c-0.1,0.2-0.2,0.2-0.4,0.2c-0.1,0-0.3-0.1-0.5-0.3c-0.2-0.2-0.4-0.4-0.8-0.6
				c-0.3-0.2-0.7-0.4-1.2-0.6s-1.1-0.3-1.8-0.3c-0.7,0-1.3,0.1-1.9,0.3c-0.5,0.2-1,0.5-1.4,0.8c-0.4,0.4-0.6,0.8-0.8,1.2
				c-0.2,0.5-0.3,0.9-0.3,1.5c0,0.7,0.1,1.2,0.4,1.7c0.3,0.4,0.7,0.8,1.1,1.1s1,0.6,1.6,0.8c0.6,0.2,1.2,0.4,1.8,0.6
				s1.2,0.4,1.8,0.7c0.6,0.2,1.1,0.6,1.6,0.9c0.5,0.4,0.8,0.8,1.1,1.4c0.3,0.5,0.4,1.2,0.4,2c0,0.8-0.1,1.6-0.4,2.3
				s-0.7,1.4-1.2,1.9s-1.2,1-2,1.3c-0.8,0.3-1.7,0.5-2.7,0.5c-1.3,0-2.4-0.2-3.3-0.7c-0.9-0.5-1.8-1.1-2.5-1.9l0.4-0.6
				c0.1-0.1,0.2-0.2,0.4-0.2c0.1,0,0.2,0.1,0.3,0.2s0.3,0.2,0.5,0.4c0.2,0.2,0.4,0.3,0.7,0.5c0.3,0.2,0.6,0.4,0.9,0.5
				c0.3,0.2,0.7,0.3,1.2,0.4c0.4,0.1,1,0.2,1.5,0.2c0.8,0,1.5-0.1,2.1-0.4c0.6-0.2,1.1-0.6,1.6-1c0.4-0.4,0.7-0.9,1-1.5
				s0.3-1.2,0.3-1.8c0-0.7-0.1-1.3-0.4-1.7c-0.3-0.4-0.7-0.8-1.1-1.1c-0.5-0.3-1-0.6-1.6-0.8c-0.6-0.2-1.2-0.4-1.8-0.6
				c-0.6-0.2-1.2-0.4-1.8-0.7c-0.6-0.2-1.1-0.5-1.6-0.9s-0.8-0.8-1.1-1.4c-0.3-0.6-0.4-1.3-0.4-2.1c0-0.7,0.1-1.3,0.4-1.9
				c0.3-0.6,0.6-1.2,1.1-1.6s1.1-0.8,1.8-1.1c0.7-0.3,1.5-0.4,2.4-0.4c1,0,1.9,0.2,2.7,0.5c0.8,0.3,1.6,0.8,2.2,1.5L68.7,142.2z"/>
			<path fill="#F7F7F7" d="M78.2,145.4c0.8,0,1.5,0.1,2.2,0.4s1.2,0.7,1.7,1.2c0.5,0.5,0.9,1.1,1.1,1.9c0.3,0.8,0.4,1.6,0.4,2.6
				c0,0.2,0,0.3-0.1,0.4c-0.1,0.1-0.2,0.1-0.3,0.1h-10v0.3c0,1,0.1,2,0.4,2.7s0.6,1.4,1,2c0.4,0.5,1,0.9,1.6,1.2s1.3,0.4,2.1,0.4
				c0.7,0,1.3-0.1,1.8-0.2c0.5-0.2,0.9-0.3,1.3-0.5c0.3-0.2,0.6-0.4,0.8-0.5c0.2-0.2,0.4-0.2,0.4-0.2c0.1,0,0.2,0,0.3,0.1l0.4,0.4
				c-0.2,0.3-0.5,0.5-0.9,0.8c-0.4,0.2-0.8,0.4-1.2,0.6c-0.4,0.2-0.9,0.3-1.4,0.4c-0.5,0.1-1,0.2-1.5,0.2c-0.9,0-1.8-0.2-2.6-0.5
				c-0.8-0.3-1.4-0.8-2-1.4s-1-1.4-1.3-2.3c-0.3-0.9-0.5-2-0.5-3.1c0-1,0.1-1.9,0.4-2.7c0.3-0.8,0.7-1.6,1.2-2.2s1.2-1.1,2-1.4
				C76.4,145.6,77.2,145.4,78.2,145.4z M78.2,146.4c-0.7,0-1.4,0.1-1.9,0.3c-0.6,0.2-1.1,0.5-1.5,1s-0.7,0.9-1,1.5
				c-0.3,0.6-0.4,1.2-0.5,2h9.1c0-0.7-0.1-1.4-0.3-2s-0.5-1.1-0.9-1.5c-0.4-0.4-0.8-0.7-1.3-0.9S78.9,146.4,78.2,146.4z"/>
			<path fill="#F7F7F7" d="M87.2,159.4v-13.8h0.7c0.2,0,0.4,0.1,0.4,0.3l0.1,2.1c0.6-0.8,1.4-1.4,2.2-1.9s1.8-0.7,2.8-0.7
				c0.8,0,1.4,0.1,2,0.4c0.6,0.2,1.1,0.6,1.4,1c0.4,0.5,0.7,1,0.9,1.6c0.2,0.6,0.3,1.4,0.3,2.2v8.8h-1.3v-8.8c0-1.3-0.3-2.3-0.9-3
				s-1.5-1.1-2.7-1.1c-0.9,0-1.8,0.2-2.5,0.7c-0.8,0.5-1.5,1.1-2.1,1.9v10.4H87.2z M94.2,141.7c0.4,0,0.7-0.1,0.9-0.4
				c0.2-0.3,0.3-0.6,0.3-1h0.8c0,0.3,0,0.6-0.1,0.9c-0.1,0.3-0.2,0.5-0.4,0.8c-0.2,0.2-0.4,0.4-0.6,0.5c-0.2,0.1-0.5,0.2-0.8,0.2
				c-0.3,0-0.6-0.1-0.9-0.2c-0.3-0.2-0.5-0.3-0.8-0.5s-0.5-0.3-0.7-0.5c-0.2-0.2-0.5-0.2-0.7-0.2c-0.4,0-0.7,0.1-0.9,0.4
				c-0.2,0.3-0.3,0.6-0.3,1H89c0-0.3,0-0.6,0.1-0.9c0.1-0.3,0.2-0.5,0.4-0.8c0.2-0.2,0.4-0.4,0.6-0.5c0.3-0.1,0.5-0.2,0.8-0.2
				s0.6,0.1,0.9,0.2c0.3,0.2,0.5,0.3,0.8,0.5c0.2,0.2,0.5,0.3,0.7,0.5C93.7,141.6,93.9,141.7,94.2,141.7z"/>
			<path fill="#F7F7F7" d="M111.1,159.4c-0.3,0-0.4-0.1-0.5-0.4l-0.2-1.8c-0.4,0.4-0.8,0.7-1.1,1c-0.4,0.3-0.8,0.5-1.2,0.8
				c-0.4,0.2-0.8,0.4-1.3,0.5c-0.5,0.1-1,0.2-1.6,0.2c-0.5,0-0.9-0.1-1.4-0.2c-0.4-0.1-0.8-0.4-1.2-0.6s-0.6-0.7-0.8-1.1
				s-0.3-1-0.3-1.6c0-0.6,0.2-1.1,0.5-1.6c0.3-0.5,0.9-0.9,1.6-1.3c0.7-0.4,1.6-0.7,2.7-0.9c1.1-0.2,2.5-0.4,4-0.4v-1.4
				c0-1.3-0.3-2.3-0.8-3c-0.6-0.7-1.4-1-2.5-1c-0.7,0-1.2,0.1-1.7,0.3c-0.5,0.2-0.9,0.4-1.2,0.6c-0.3,0.2-0.6,0.4-0.8,0.6
				c-0.2,0.2-0.4,0.3-0.5,0.3c-0.2,0-0.3-0.1-0.4-0.2l-0.2-0.4c0.7-0.7,1.5-1.3,2.3-1.6c0.8-0.4,1.7-0.6,2.7-0.6
				c0.7,0,1.4,0.1,1.9,0.4c0.6,0.2,1,0.6,1.4,1c0.4,0.4,0.6,1,0.8,1.6c0.2,0.6,0.3,1.3,0.3,2.1v9H111.1z M105.5,158.7
				c0.5,0,1-0.1,1.5-0.2c0.4-0.1,0.9-0.3,1.3-0.5c0.4-0.2,0.7-0.5,1.1-0.7s0.7-0.6,1-0.9v-3.6c-1.3,0-2.4,0.1-3.4,0.3
				c-0.9,0.2-1.7,0.4-2.3,0.7c-0.6,0.3-1.1,0.6-1.4,1c-0.3,0.4-0.4,0.8-0.4,1.3c0,0.5,0.1,0.9,0.2,1.2s0.4,0.6,0.6,0.8
				s0.5,0.4,0.9,0.5C104.8,158.7,105.1,158.7,105.5,158.7z"/>
			<path fill="#F7F7F7" d="M117.5,139.2v20.2h-1.3v-20.2H117.5z"/>
			<path fill="#F7F7F7" d="M124.6,140.9c0,0.2,0,0.3-0.1,0.5s-0.2,0.3-0.3,0.4c-0.1,0.1-0.2,0.2-0.4,0.3c-0.1,0.1-0.3,0.1-0.5,0.1
				c-0.2,0-0.3,0-0.5-0.1c-0.1-0.1-0.3-0.2-0.4-0.3c-0.1-0.1-0.2-0.2-0.3-0.4c-0.1-0.1-0.1-0.3-0.1-0.5c0-0.2,0-0.3,0.1-0.5
				c0.1-0.2,0.2-0.3,0.3-0.4c0.1-0.1,0.2-0.2,0.4-0.3c0.1-0.1,0.3-0.1,0.5-0.1c0.2,0,0.3,0,0.5,0.1c0.1,0.1,0.3,0.2,0.4,0.3
				s0.2,0.2,0.3,0.4C124.6,140.5,124.6,140.7,124.6,140.9z M124.1,145.6v13.8h-1.3v-13.8H124.1z"/>
			<path fill="#F7F7F7" d="M138.2,146.2c0,0.2-0.1,0.4-0.2,0.5l-8.7,11.7h8.5v1h-10.1v-0.5c0-0.2,0.1-0.3,0.2-0.5l8.7-11.7h-8.4v-1
				h10V146.2z"/>
			<path fill="#F7F7F7" d="M150.3,159.4c-0.3,0-0.4-0.1-0.5-0.4l-0.2-1.8c-0.4,0.4-0.8,0.7-1.1,1c-0.4,0.3-0.8,0.5-1.2,0.8
				c-0.4,0.2-0.8,0.4-1.3,0.5c-0.5,0.1-1,0.2-1.6,0.2c-0.5,0-0.9-0.1-1.4-0.2c-0.4-0.1-0.8-0.4-1.2-0.6s-0.6-0.7-0.8-1.1
				s-0.3-1-0.3-1.6c0-0.6,0.2-1.1,0.5-1.6c0.3-0.5,0.9-0.9,1.6-1.3c0.7-0.4,1.6-0.7,2.7-0.9c1.1-0.2,2.5-0.4,4-0.4v-1.4
				c0-1.3-0.3-2.3-0.8-3c-0.6-0.7-1.4-1-2.5-1c-0.7,0-1.2,0.1-1.7,0.3c-0.5,0.2-0.9,0.4-1.2,0.6c-0.3,0.2-0.6,0.4-0.8,0.6
				c-0.2,0.2-0.4,0.3-0.5,0.3c-0.2,0-0.3-0.1-0.4-0.2l-0.2-0.4c0.7-0.7,1.5-1.3,2.3-1.6c0.8-0.4,1.7-0.6,2.7-0.6
				c0.7,0,1.4,0.1,1.9,0.4c0.6,0.2,1,0.6,1.4,1c0.4,0.4,0.6,1,0.8,1.6c0.2,0.6,0.3,1.3,0.3,2.1v9H150.3z M144.8,158.7
				c0.5,0,1-0.1,1.5-0.2c0.4-0.1,0.9-0.3,1.3-0.5c0.4-0.2,0.7-0.5,1.1-0.7s0.7-0.6,1-0.9v-3.6c-1.3,0-2.4,0.1-3.4,0.3
				c-0.9,0.2-1.7,0.4-2.3,0.7c-0.6,0.3-1.1,0.6-1.4,1c-0.3,0.4-0.4,0.8-0.4,1.3c0,0.5,0.1,0.9,0.2,1.2s0.4,0.6,0.6,0.8
				s0.5,0.4,0.9,0.5C144.1,158.7,144.4,158.7,144.8,158.7z"/>
			<path fill="#F7F7F7" d="M164.1,147.5c0,0-0.1,0.1-0.1,0.1c0,0-0.1,0-0.2,0c-0.1,0-0.2-0.1-0.4-0.2s-0.4-0.3-0.6-0.4
				c-0.3-0.1-0.6-0.3-1-0.4c-0.4-0.1-0.9-0.2-1.5-0.2c-0.8,0-1.5,0.1-2.1,0.4c-0.6,0.3-1.1,0.7-1.6,1.2c-0.4,0.5-0.7,1.2-1,1.9
				c-0.2,0.8-0.3,1.6-0.3,2.5c0,1,0.1,1.8,0.3,2.6c0.2,0.8,0.5,1.4,1,1.9c0.4,0.5,0.9,0.9,1.5,1.2s1.3,0.4,2,0.4
				c0.7,0,1.2-0.1,1.7-0.2s0.8-0.3,1.1-0.5c0.3-0.2,0.5-0.4,0.7-0.5s0.3-0.2,0.4-0.2c0.1,0,0.2,0,0.3,0.1l0.4,0.4
				c-0.2,0.3-0.5,0.5-0.8,0.8c-0.3,0.2-0.7,0.4-1.1,0.6s-0.9,0.3-1.3,0.4c-0.5,0.1-1,0.1-1.5,0.1c-0.9,0-1.7-0.2-2.4-0.5
				s-1.4-0.8-1.9-1.4c-0.5-0.6-0.9-1.3-1.2-2.2c-0.3-0.9-0.4-1.9-0.4-3c0-1.1,0.1-2,0.4-2.9s0.7-1.6,1.2-2.3c0.5-0.6,1.2-1.1,2-1.5
				s1.7-0.5,2.7-0.5c0.9,0,1.7,0.1,2.4,0.4s1.3,0.7,1.8,1.2L164.1,147.5z"/>
			<path fill="#F7F7F7" d="M170,140.9c0,0.2,0,0.3-0.1,0.5s-0.2,0.3-0.3,0.4c-0.1,0.1-0.2,0.2-0.4,0.3s-0.3,0.1-0.5,0.1
				c-0.2,0-0.3,0-0.5-0.1s-0.3-0.2-0.4-0.3c-0.1-0.1-0.2-0.2-0.3-0.4s-0.1-0.3-0.1-0.5c0-0.2,0-0.3,0.1-0.5c0.1-0.2,0.2-0.3,0.3-0.4
				s0.2-0.2,0.4-0.3s0.3-0.1,0.5-0.1c0.2,0,0.3,0,0.5,0.1s0.3,0.2,0.4,0.3s0.2,0.2,0.3,0.4C169.9,140.5,170,140.7,170,140.9z
				 M169.4,145.6v13.8h-1.3v-13.8H169.4z"/>
			<path fill="#F7F7F7" d="M179.5,145.4c1,0,1.9,0.2,2.7,0.5c0.8,0.3,1.4,0.8,2,1.4c0.5,0.6,0.9,1.4,1.2,2.2
				c0.3,0.9,0.4,1.9,0.4,2.9c0,1.1-0.1,2.1-0.4,2.9c-0.3,0.9-0.7,1.6-1.2,2.2c-0.5,0.6-1.2,1.1-2,1.4c-0.8,0.3-1.7,0.5-2.7,0.5
				s-1.9-0.2-2.7-0.5c-0.8-0.3-1.4-0.8-2-1.4c-0.5-0.6-1-1.4-1.2-2.2c-0.3-0.9-0.4-1.8-0.4-2.9c0-1.1,0.1-2.1,0.4-2.9
				c0.3-0.9,0.7-1.6,1.2-2.2c0.5-0.6,1.2-1.1,2-1.4C177.7,145.6,178.6,145.4,179.5,145.4z M179.5,158.6c0.8,0,1.5-0.1,2.2-0.4
				s1.1-0.7,1.5-1.2s0.7-1.2,0.9-1.9c0.2-0.7,0.3-1.6,0.3-2.5c0-0.9-0.1-1.8-0.3-2.5c-0.2-0.8-0.5-1.4-0.9-1.9
				c-0.4-0.5-0.9-0.9-1.5-1.2c-0.6-0.3-1.3-0.4-2.2-0.4c-0.8,0-1.5,0.1-2.2,0.4c-0.6,0.3-1.1,0.7-1.5,1.2c-0.4,0.5-0.7,1.2-0.9,1.9
				c-0.2,0.8-0.3,1.6-0.3,2.5c0,0.9,0.1,1.8,0.3,2.5c0.2,0.7,0.5,1.4,0.9,1.9c0.4,0.5,0.9,0.9,1.5,1.2S178.7,158.6,179.5,158.6z
				 M182.7,139.6l-3,3.5c-0.1,0.1-0.2,0.2-0.2,0.2c-0.1,0-0.2,0-0.3,0h-0.8l2.2-3.3c0.1-0.2,0.2-0.3,0.3-0.3
				c0.1-0.1,0.3-0.1,0.5-0.1H182.7z"/>
			<path fill="#F7F7F7" d="M189.3,159.4v-13.8h0.7c0.2,0,0.4,0.1,0.4,0.3l0.1,2.1c0.6-0.8,1.4-1.4,2.2-1.9c0.8-0.5,1.8-0.7,2.8-0.7
				c0.8,0,1.4,0.1,2,0.4c0.6,0.2,1.1,0.6,1.4,1c0.4,0.5,0.7,1,0.9,1.6c0.2,0.6,0.3,1.4,0.3,2.2v8.8h-1.3v-8.8c0-1.3-0.3-2.3-0.9-3
				s-1.5-1.1-2.7-1.1c-0.9,0-1.8,0.2-2.5,0.7s-1.5,1.1-2.1,1.9v10.4H189.3z"/>
		</g>
	</g>
	<path fill="#F7F7F7" d="M128.8,4c-33,0-59.7,26.7-59.7,59.7c0,33,26.7,59.7,59.7,59.7c33,0,59.7-26.7,59.7-59.7
		C188.5,30.7,161.8,4,128.8,4z M152,90.3v-9.6h-22.8v23.1h-16.7V80.8H89.4V64h23.1V41.2h-9.6l17.9-27.1l17.9,27.1h-9.6V64H152v-9.6
		l27.1,17.9L152,90.3z"/>
</g>
</svg>
