<?xml version="1.0" encoding="utf-8"?>
<!-- Generator: Adobe Illustrator 17.1.0, SVG Export Plug-In . SVG Version: 6.00 Build 0)  -->
<!DOCTYPE svg PUBLIC "-//W3C//DTD SVG 1.1//EN" "http://www.w3.org/Graphics/SVG/1.1/DTD/svg11.dtd">
<svg version="1.1" id="Capa_1" xmlns="http://www.w3.org/2000/svg" xmlns:xlink="http://www.w3.org/1999/xlink" x="0px" y="0px"
	 viewBox="0 0 257.6 163.6" enable-background="new 0 0 257.6 163.6" xml:space="preserve">
<g>
	<g>
		<g>
			<path fill="#F7F7F7" d="M18,142.2c-0.1,0.2-0.2,0.2-0.4,0.2c-0.1,0-0.3-0.1-0.5-0.3c-0.2-0.2-0.4-0.4-0.8-0.6
				c-0.3-0.2-0.7-0.4-1.2-0.6c-0.5-0.2-1.1-0.3-1.8-0.3c-0.7,0-1.3,0.1-1.9,0.3c-0.5,0.2-1,0.5-1.4,0.8c-0.4,0.4-0.6,0.8-0.8,1.2
				c-0.2,0.5-0.3,0.9-0.3,1.5c0,0.7,0.1,1.2,0.4,1.7c0.3,0.4,0.7,0.8,1.1,1.1s1,0.6,1.6,0.8c0.6,0.2,1.2,0.4,1.8,0.6
				c0.6,0.2,1.2,0.4,1.8,0.7c0.6,0.2,1.1,0.6,1.6,0.9c0.5,0.4,0.8,0.8,1.1,1.4c0.3,0.5,0.4,1.2,0.4,2c0,0.8-0.1,1.6-0.4,2.3
				c-0.3,0.7-0.7,1.4-1.2,1.9s-1.2,1-2,1.3c-0.8,0.3-1.7,0.5-2.7,0.5c-1.3,0-2.4-0.2-3.3-0.7c-0.9-0.5-1.8-1.1-2.5-1.9l0.4-0.6
				c0.1-0.1,0.2-0.2,0.4-0.2c0.1,0,0.2,0.1,0.3,0.2c0.1,0.1,0.3,0.2,0.5,0.4c0.2,0.2,0.4,0.3,0.7,0.5c0.3,0.2,0.6,0.4,0.9,0.5
				c0.3,0.2,0.7,0.3,1.2,0.4c0.4,0.1,1,0.2,1.5,0.2c0.8,0,1.5-0.1,2.1-0.4c0.6-0.2,1.1-0.6,1.6-1c0.4-0.4,0.7-0.9,1-1.5
				s0.3-1.2,0.3-1.8c0-0.7-0.1-1.3-0.4-1.7s-0.7-0.8-1.1-1.1c-0.5-0.3-1-0.6-1.6-0.8c-0.6-0.2-1.2-0.4-1.8-0.6
				c-0.6-0.2-1.2-0.4-1.8-0.7c-0.6-0.2-1.1-0.5-1.6-0.9s-0.8-0.8-1.1-1.4c-0.3-0.6-0.4-1.3-0.4-2.1c0-0.7,0.1-1.3,0.4-1.9
				c0.3-0.6,0.6-1.2,1.1-1.6s1.1-0.8,1.8-1.1c0.7-0.3,1.5-0.4,2.4-0.4c1,0,1.9,0.2,2.7,0.5c0.8,0.3,1.6,0.8,2.2,1.5L18,142.2z"/>
			<path fill="#F7F7F7" d="M27.5,145.4c0.8,0,1.5,0.1,2.2,0.4s1.2,0.7,1.7,1.2c0.5,0.5,0.9,1.1,1.1,1.9c0.3,0.8,0.4,1.6,0.4,2.6
				c0,0.2,0,0.3-0.1,0.4c-0.1,0.1-0.2,0.1-0.3,0.1h-10v0.3c0,1,0.1,2,0.4,2.7c0.2,0.8,0.6,1.4,1,2c0.4,0.5,1,0.9,1.6,1.2
				s1.3,0.4,2.1,0.4c0.7,0,1.3-0.1,1.8-0.2c0.5-0.2,0.9-0.3,1.3-0.5c0.3-0.2,0.6-0.4,0.8-0.5c0.2-0.2,0.4-0.2,0.4-0.2
				c0.1,0,0.2,0,0.3,0.1l0.4,0.4c-0.2,0.3-0.5,0.5-0.9,0.8c-0.4,0.2-0.8,0.4-1.2,0.6c-0.4,0.2-0.9,0.3-1.4,0.4
				c-0.5,0.1-1,0.2-1.5,0.2c-0.9,0-1.8-0.2-2.6-0.5c-0.8-0.3-1.4-0.8-2-1.4c-0.6-0.6-1-1.4-1.3-2.3c-0.3-0.9-0.5-2-0.5-3.1
				c0-1,0.1-1.9,0.4-2.7c0.3-0.8,0.7-1.6,1.2-2.2s1.2-1.1,2-1.4S26.6,145.4,27.5,145.4z M27.6,146.4c-0.7,0-1.4,0.1-1.9,0.3
				c-0.6,0.2-1.1,0.5-1.5,1s-0.7,0.9-1,1.5c-0.3,0.6-0.4,1.2-0.5,2h9.1c0-0.7-0.1-1.4-0.3-2c-0.2-0.6-0.5-1.1-0.9-1.5
				c-0.4-0.4-0.8-0.7-1.3-0.9C28.8,146.5,28.2,146.4,27.6,146.4z"/>
			<path fill="#F7F7F7" d="M36.5,159.4v-13.8h0.7c0.2,0,0.3,0,0.3,0.1c0.1,0.1,0.1,0.2,0.1,0.3l0.1,2.9c0.4-1.1,1-2,1.8-2.6
				c0.7-0.6,1.7-1,2.7-1c0.4,0,0.8,0,1.2,0.1c0.4,0.1,0.7,0.2,1,0.4l-0.2,0.9c0,0.1-0.1,0.2-0.3,0.2c-0.1,0-0.1,0-0.2-0.1
				c-0.1,0-0.2-0.1-0.4-0.1c-0.2,0-0.3-0.1-0.6-0.1c-0.2,0-0.5-0.1-0.8-0.1c-1,0-1.9,0.3-2.6,1c-0.7,0.6-1.2,1.6-1.6,2.8v9H36.5z"/>
			<path fill="#F7F7F7" d="M52.7,159.4h-1.2l-5.8-13.8h1c0.1,0,0.2,0,0.3,0.1c0.1,0.1,0.1,0.1,0.2,0.2l4.6,10.9
				c0.1,0.2,0.2,0.4,0.2,0.6c0,0.2,0.1,0.4,0.1,0.6c0-0.2,0.1-0.4,0.1-0.6c0.1-0.2,0.1-0.4,0.2-0.6L57,146c0-0.1,0.1-0.2,0.2-0.2
				c0.1-0.1,0.2-0.1,0.3-0.1h1L52.7,159.4z"/>
			<path fill="#F7F7F7" d="M63.4,140.9c0,0.2,0,0.3-0.1,0.5s-0.2,0.3-0.3,0.4c-0.1,0.1-0.2,0.2-0.4,0.3s-0.3,0.1-0.5,0.1
				c-0.2,0-0.3,0-0.5-0.1c-0.1-0.1-0.3-0.2-0.4-0.3c-0.1-0.1-0.2-0.2-0.3-0.4c-0.1-0.1-0.1-0.3-0.1-0.5c0-0.2,0-0.3,0.1-0.5
				c0.1-0.2,0.2-0.3,0.3-0.4s0.2-0.2,0.4-0.3c0.1-0.1,0.3-0.1,0.5-0.1c0.2,0,0.3,0,0.5,0.1s0.3,0.2,0.4,0.3c0.1,0.1,0.2,0.2,0.3,0.4
				C63.4,140.5,63.4,140.7,63.4,140.9z M62.8,145.6v13.8h-1.3v-13.8H62.8z"/>
			<path fill="#F7F7F7" d="M76.8,147.5c0,0-0.1,0.1-0.1,0.1c0,0-0.1,0-0.2,0c-0.1,0-0.2-0.1-0.4-0.2s-0.4-0.3-0.6-0.4
				c-0.3-0.1-0.6-0.3-1-0.4c-0.4-0.1-0.9-0.2-1.5-0.2c-0.8,0-1.5,0.1-2.1,0.4c-0.6,0.3-1.1,0.7-1.6,1.2c-0.4,0.5-0.7,1.2-1,1.9
				c-0.2,0.8-0.3,1.6-0.3,2.5c0,1,0.1,1.8,0.3,2.6c0.2,0.8,0.5,1.4,1,1.9s0.9,0.9,1.5,1.2c0.6,0.3,1.2,0.4,2,0.4
				c0.7,0,1.2-0.1,1.7-0.2s0.8-0.3,1.1-0.5c0.3-0.2,0.5-0.4,0.7-0.5c0.2-0.2,0.3-0.2,0.4-0.2c0.1,0,0.2,0,0.3,0.1l0.4,0.4
				c-0.2,0.3-0.5,0.5-0.8,0.8c-0.3,0.2-0.7,0.4-1.1,0.6s-0.8,0.3-1.3,0.4c-0.5,0.1-1,0.1-1.5,0.1c-0.9,0-1.7-0.2-2.4-0.5
				s-1.4-0.8-1.9-1.4c-0.5-0.6-0.9-1.3-1.2-2.2s-0.4-1.9-0.4-3c0-1.1,0.1-2,0.4-2.9c0.3-0.9,0.7-1.6,1.2-2.3c0.5-0.6,1.2-1.1,2-1.5
				s1.7-0.5,2.7-0.5c0.9,0,1.7,0.1,2.4,0.4s1.3,0.7,1.8,1.2L76.8,147.5z"/>
			<path fill="#F7F7F7" d="M82.6,140.9c0,0.2,0,0.3-0.1,0.5s-0.2,0.3-0.3,0.4c-0.1,0.1-0.2,0.2-0.4,0.3s-0.3,0.1-0.5,0.1
				c-0.2,0-0.3,0-0.5-0.1c-0.1-0.1-0.3-0.2-0.4-0.3c-0.1-0.1-0.2-0.2-0.3-0.4c-0.1-0.1-0.1-0.3-0.1-0.5c0-0.2,0-0.3,0.1-0.5
				c0.1-0.2,0.2-0.3,0.3-0.4s0.2-0.2,0.4-0.3c0.1-0.1,0.3-0.1,0.5-0.1c0.2,0,0.3,0,0.5,0.1s0.3,0.2,0.4,0.3c0.1,0.1,0.2,0.2,0.3,0.4
				C82.6,140.5,82.6,140.7,82.6,140.9z M82.1,145.6v13.8h-1.3v-13.8H82.1z"/>
			<path fill="#F7F7F7" d="M92.2,145.4c1,0,1.9,0.2,2.7,0.5c0.8,0.3,1.4,0.8,2,1.4c0.5,0.6,0.9,1.4,1.2,2.2c0.3,0.9,0.4,1.9,0.4,2.9
				c0,1.1-0.1,2.1-0.4,2.9c-0.3,0.9-0.7,1.6-1.2,2.2c-0.5,0.6-1.2,1.1-2,1.4c-0.8,0.3-1.7,0.5-2.7,0.5s-1.9-0.2-2.7-0.5
				c-0.8-0.3-1.4-0.8-2-1.4c-0.5-0.6-1-1.4-1.2-2.2c-0.3-0.9-0.4-1.8-0.4-2.9c0-1.1,0.1-2.1,0.4-2.9c0.3-0.9,0.7-1.6,1.2-2.2
				c0.5-0.6,1.2-1.1,2-1.4C90.3,145.6,91.2,145.4,92.2,145.4z M92.2,158.6c0.8,0,1.5-0.1,2.2-0.4s1.1-0.7,1.5-1.2s0.7-1.2,0.9-1.9
				c0.2-0.7,0.3-1.6,0.3-2.5c0-0.9-0.1-1.8-0.3-2.5c-0.2-0.8-0.5-1.4-0.9-1.9c-0.4-0.5-0.9-0.9-1.5-1.2c-0.6-0.3-1.3-0.4-2.2-0.4
				c-0.8,0-1.5,0.1-2.2,0.4c-0.6,0.3-1.1,0.7-1.5,1.2c-0.4,0.5-0.7,1.2-0.9,1.9c-0.2,0.8-0.3,1.6-0.3,2.5c0,0.9,0.1,1.8,0.3,2.5
				c0.2,0.7,0.5,1.4,0.9,1.9c0.4,0.5,0.9,0.9,1.5,1.2S91.4,158.6,92.2,158.6z"/>
			<path fill="#F7F7F7" d="M109.6,147.3c-0.1,0.1-0.2,0.2-0.3,0.2c-0.1,0-0.2-0.1-0.4-0.2c-0.2-0.1-0.4-0.2-0.6-0.4s-0.6-0.3-1-0.4
				c-0.4-0.1-0.9-0.2-1.4-0.2c-0.5,0-1,0.1-1.4,0.2s-0.8,0.3-1.1,0.6s-0.5,0.5-0.7,0.8c-0.2,0.3-0.2,0.7-0.2,1
				c0,0.4,0.1,0.8,0.3,1.1c0.2,0.3,0.5,0.5,0.9,0.7s0.8,0.4,1.2,0.5c0.5,0.1,0.9,0.3,1.4,0.4s1,0.3,1.4,0.5c0.5,0.2,0.9,0.4,1.2,0.7
				c0.4,0.3,0.7,0.6,0.9,1c0.2,0.4,0.3,0.9,0.3,1.4c0,0.6-0.1,1.2-0.3,1.7c-0.2,0.5-0.5,1-0.9,1.3c-0.4,0.4-0.9,0.7-1.5,0.9
				c-0.6,0.2-1.3,0.3-2.1,0.3c-1,0-1.8-0.2-2.5-0.5s-1.3-0.7-1.9-1.2l0.3-0.5c0-0.1,0.1-0.1,0.2-0.2s0.1-0.1,0.2-0.1
				c0.1,0,0.3,0.1,0.4,0.2c0.2,0.1,0.4,0.3,0.7,0.5c0.3,0.2,0.6,0.3,1.1,0.5c0.4,0.1,0.9,0.2,1.6,0.2c0.6,0,1.1-0.1,1.5-0.2
				s0.8-0.4,1.1-0.7c0.3-0.3,0.5-0.6,0.7-1c0.2-0.4,0.2-0.8,0.2-1.2c0-0.5-0.1-0.8-0.3-1.2c-0.2-0.3-0.5-0.6-0.9-0.8
				c-0.4-0.2-0.8-0.4-1.2-0.5c-0.5-0.1-0.9-0.3-1.4-0.4c-0.5-0.1-1-0.3-1.4-0.5c-0.5-0.2-0.9-0.4-1.2-0.7c-0.4-0.3-0.7-0.6-0.9-1
				c-0.2-0.4-0.3-0.9-0.3-1.4c0-0.5,0.1-1,0.3-1.4c0.2-0.5,0.5-0.9,0.9-1.2c0.4-0.3,0.9-0.6,1.4-0.8c0.6-0.2,1.2-0.3,1.9-0.3
				c0.8,0,1.6,0.1,2.2,0.4c0.7,0.2,1.3,0.6,1.8,1.1L109.6,147.3z"/>
			<path fill="#F7F7F7" d="M134.8,159.4h-1.1c-0.1,0-0.2,0-0.3-0.1c-0.1-0.1-0.1-0.2-0.2-0.3l-2.3-5.7h-9.7l-2.3,5.7
				c0,0.1-0.1,0.2-0.2,0.3c-0.1,0.1-0.2,0.1-0.3,0.1h-1.1l8-19.7h1.4L134.8,159.4z M121.6,152.3h8.8l-4-9.9
				c-0.1-0.2-0.1-0.3-0.2-0.5c-0.1-0.2-0.1-0.4-0.2-0.6c-0.1,0.2-0.1,0.4-0.2,0.6s-0.1,0.4-0.2,0.5L121.6,152.3z"/>
			<path fill="#F7F7F7" d="M147,159.4c-0.2,0-0.4-0.1-0.4-0.4l-0.1-2.2c-0.6,0.8-1.3,1.5-2.2,2c-0.8,0.5-1.7,0.7-2.8,0.7
				c-1.7,0-3-0.6-4-1.8c-1-1.2-1.4-2.9-1.4-5.3c0-1,0.1-2,0.4-2.8c0.3-0.9,0.7-1.6,1.2-2.3c0.5-0.6,1.1-1.2,1.9-1.5
				c0.7-0.4,1.6-0.6,2.6-0.6c0.9,0,1.7,0.2,2.4,0.5c0.7,0.3,1.3,0.9,1.8,1.5v-8.2h1.3v20.2H147z M141.9,158.6c0.9,0,1.7-0.2,2.5-0.7
				c0.7-0.5,1.4-1.1,2-2v-7.3c-0.5-0.8-1.1-1.3-1.8-1.7c-0.6-0.3-1.4-0.5-2.2-0.5s-1.5,0.1-2.1,0.4c-0.6,0.3-1.1,0.7-1.5,1.3
				c-0.4,0.5-0.7,1.2-0.9,1.9s-0.3,1.6-0.3,2.5c0,2.1,0.4,3.6,1.1,4.5C139.4,158.1,140.5,158.6,141.9,158.6z"/>
			<path fill="#F7F7F7" d="M154.7,140.9c0,0.2,0,0.3-0.1,0.5s-0.2,0.3-0.3,0.4c-0.1,0.1-0.2,0.2-0.4,0.3s-0.3,0.1-0.5,0.1
				c-0.2,0-0.3,0-0.5-0.1c-0.1-0.1-0.3-0.2-0.4-0.3c-0.1-0.1-0.2-0.2-0.3-0.4c-0.1-0.1-0.1-0.3-0.1-0.5c0-0.2,0-0.3,0.1-0.5
				c0.1-0.2,0.2-0.3,0.3-0.4s0.2-0.2,0.4-0.3c0.1-0.1,0.3-0.1,0.5-0.1c0.2,0,0.3,0,0.5,0.1s0.3,0.2,0.4,0.3c0.1,0.1,0.2,0.2,0.3,0.4
				C154.6,140.5,154.7,140.7,154.7,140.9z M154.1,145.6v13.8h-1.3v-13.8H154.1z"/>
			<path fill="#F7F7F7" d="M168.1,147.5c0,0-0.1,0.1-0.1,0.1c0,0-0.1,0-0.2,0c-0.1,0-0.2-0.1-0.4-0.2s-0.4-0.3-0.6-0.4
				c-0.3-0.1-0.6-0.3-1-0.4c-0.4-0.1-0.9-0.2-1.5-0.2c-0.8,0-1.5,0.1-2.1,0.4c-0.6,0.3-1.1,0.7-1.6,1.2c-0.4,0.5-0.7,1.2-1,1.9
				c-0.2,0.8-0.3,1.6-0.3,2.5c0,1,0.1,1.8,0.3,2.6c0.2,0.8,0.5,1.4,1,1.9s0.9,0.9,1.5,1.2c0.6,0.3,1.2,0.4,2,0.4
				c0.7,0,1.2-0.1,1.7-0.2s0.8-0.3,1.1-0.5c0.3-0.2,0.5-0.4,0.7-0.5c0.2-0.2,0.3-0.2,0.4-0.2c0.1,0,0.2,0,0.3,0.1l0.4,0.4
				c-0.2,0.3-0.5,0.5-0.8,0.8c-0.3,0.2-0.7,0.4-1.1,0.6s-0.8,0.3-1.3,0.4c-0.5,0.1-1,0.1-1.5,0.1c-0.9,0-1.7-0.2-2.4-0.5
				s-1.4-0.8-1.9-1.4c-0.5-0.6-0.9-1.3-1.2-2.2s-0.4-1.9-0.4-3c0-1.1,0.1-2,0.4-2.9c0.3-0.9,0.7-1.6,1.2-2.3c0.5-0.6,1.2-1.1,2-1.5
				s1.7-0.5,2.7-0.5c0.9,0,1.7,0.1,2.4,0.4s1.3,0.7,1.8,1.2L168.1,147.5z"/>
			<path fill="#F7F7F7" d="M173.9,140.9c0,0.2,0,0.3-0.1,0.5s-0.2,0.3-0.3,0.4c-0.1,0.1-0.2,0.2-0.4,0.3s-0.3,0.1-0.5,0.1
				c-0.2,0-0.3,0-0.5-0.1c-0.1-0.1-0.3-0.2-0.4-0.3c-0.1-0.1-0.2-0.2-0.3-0.4c-0.1-0.1-0.1-0.3-0.1-0.5c0-0.2,0-0.3,0.1-0.5
				c0.1-0.2,0.2-0.3,0.3-0.4s0.2-0.2,0.4-0.3c0.1-0.1,0.3-0.1,0.5-0.1c0.2,0,0.3,0,0.5,0.1s0.3,0.2,0.4,0.3c0.1,0.1,0.2,0.2,0.3,0.4
				C173.9,140.5,173.9,140.7,173.9,140.9z M173.3,145.6v13.8H172v-13.8H173.3z"/>
			<path fill="#F7F7F7" d="M183.5,145.4c1,0,1.9,0.2,2.7,0.5c0.8,0.3,1.4,0.8,2,1.4c0.5,0.6,0.9,1.4,1.2,2.2
				c0.3,0.9,0.4,1.9,0.4,2.9c0,1.1-0.1,2.1-0.4,2.9c-0.3,0.9-0.7,1.6-1.2,2.2c-0.5,0.6-1.2,1.1-2,1.4c-0.8,0.3-1.7,0.5-2.7,0.5
				s-1.9-0.2-2.7-0.5c-0.8-0.3-1.4-0.8-2-1.4c-0.5-0.6-1-1.4-1.2-2.2c-0.3-0.9-0.4-1.8-0.4-2.9c0-1.1,0.1-2.1,0.4-2.9
				c0.3-0.9,0.7-1.6,1.2-2.2c0.5-0.6,1.2-1.1,2-1.4C181.6,145.6,182.5,145.4,183.5,145.4z M183.5,158.6c0.8,0,1.5-0.1,2.2-0.4
				s1.1-0.7,1.5-1.2s0.7-1.2,0.9-1.9c0.2-0.7,0.3-1.6,0.3-2.5c0-0.9-0.1-1.8-0.3-2.5c-0.2-0.8-0.5-1.4-0.9-1.9
				c-0.4-0.5-0.9-0.9-1.5-1.2c-0.6-0.3-1.3-0.4-2.2-0.4c-0.8,0-1.5,0.1-2.2,0.4c-0.6,0.3-1.1,0.7-1.5,1.2c-0.4,0.5-0.7,1.2-0.9,1.9
				c-0.2,0.8-0.3,1.6-0.3,2.5c0,0.9,0.1,1.8,0.3,2.5c0.2,0.7,0.5,1.4,0.9,1.9c0.4,0.5,0.9,0.9,1.5,1.2S182.7,158.6,183.5,158.6z"/>
			<path fill="#F7F7F7" d="M193.2,159.4v-13.8h0.7c0.2,0,0.4,0.1,0.4,0.3l0.1,2.1c0.6-0.8,1.4-1.4,2.2-1.9c0.8-0.5,1.8-0.7,2.8-0.7
				c0.8,0,1.4,0.1,2,0.4c0.6,0.2,1.1,0.6,1.4,1c0.4,0.5,0.7,1,0.9,1.6c0.2,0.6,0.3,1.4,0.3,2.2v8.8h-1.3v-8.8c0-1.3-0.3-2.3-0.9-3
				s-1.5-1.1-2.7-1.1c-0.9,0-1.8,0.2-2.5,0.7s-1.5,1.1-2.1,1.9v10.4H193.2z"/>
			<path fill="#F7F7F7" d="M217.1,159.4c-0.3,0-0.4-0.1-0.5-0.4l-0.2-1.8c-0.4,0.4-0.8,0.7-1.1,1c-0.4,0.3-0.8,0.5-1.2,0.8
				c-0.4,0.2-0.8,0.4-1.3,0.5c-0.5,0.1-1,0.2-1.6,0.2c-0.5,0-0.9-0.1-1.4-0.2c-0.4-0.1-0.8-0.4-1.2-0.6s-0.6-0.7-0.8-1.1
				c-0.2-0.4-0.3-1-0.3-1.6c0-0.6,0.2-1.1,0.5-1.6c0.3-0.5,0.9-0.9,1.6-1.3c0.7-0.4,1.6-0.7,2.7-0.9c1.1-0.2,2.5-0.4,4-0.4v-1.4
				c0-1.3-0.3-2.3-0.8-3c-0.6-0.7-1.4-1-2.5-1c-0.7,0-1.2,0.1-1.7,0.3c-0.5,0.2-0.9,0.4-1.2,0.6c-0.3,0.2-0.6,0.4-0.8,0.6
				c-0.2,0.2-0.4,0.3-0.5,0.3c-0.2,0-0.3-0.1-0.4-0.2l-0.2-0.4c0.7-0.7,1.5-1.3,2.3-1.6c0.8-0.4,1.7-0.6,2.7-0.6
				c0.7,0,1.4,0.1,1.9,0.4s1,0.6,1.4,1c0.4,0.4,0.6,1,0.8,1.6c0.2,0.6,0.3,1.3,0.3,2.1v9H217.1z M211.5,158.7c0.5,0,1-0.1,1.5-0.2
				c0.4-0.1,0.9-0.3,1.2-0.5c0.4-0.2,0.7-0.5,1.1-0.7c0.3-0.3,0.7-0.6,1-0.9v-3.6c-1.3,0-2.4,0.1-3.4,0.3c-1,0.2-1.7,0.4-2.3,0.7
				c-0.6,0.3-1.1,0.6-1.4,1c-0.3,0.4-0.4,0.8-0.4,1.3c0,0.5,0.1,0.9,0.2,1.2c0.2,0.3,0.4,0.6,0.6,0.8s0.5,0.4,0.9,0.5
				C210.8,158.7,211.2,158.7,211.5,158.7z"/>
			<path fill="#F7F7F7" d="M223.5,139.2v20.2h-1.3v-20.2H223.5z"/>
			<path fill="#F7F7F7" d="M233.6,145.4c0.8,0,1.5,0.1,2.2,0.4s1.2,0.7,1.7,1.2c0.5,0.5,0.9,1.1,1.1,1.9c0.3,0.8,0.4,1.6,0.4,2.6
				c0,0.2,0,0.3-0.1,0.4c-0.1,0.1-0.2,0.1-0.3,0.1h-10v0.3c0,1,0.1,2,0.4,2.7c0.2,0.8,0.6,1.4,1,2c0.4,0.5,1,0.9,1.6,1.2
				s1.3,0.4,2.1,0.4c0.7,0,1.3-0.1,1.8-0.2c0.5-0.2,0.9-0.3,1.3-0.5c0.3-0.2,0.6-0.4,0.8-0.5c0.2-0.2,0.4-0.2,0.4-0.2
				c0.1,0,0.2,0,0.3,0.1l0.4,0.4c-0.2,0.3-0.5,0.5-0.9,0.8c-0.4,0.2-0.8,0.4-1.2,0.6c-0.4,0.2-0.9,0.3-1.4,0.4
				c-0.5,0.1-1,0.2-1.5,0.2c-0.9,0-1.8-0.2-2.6-0.5c-0.8-0.3-1.4-0.8-2-1.4c-0.6-0.6-1-1.4-1.3-2.3c-0.3-0.9-0.5-2-0.5-3.1
				c0-1,0.1-1.9,0.4-2.7c0.3-0.8,0.7-1.6,1.2-2.2s1.2-1.1,2-1.4S232.6,145.4,233.6,145.4z M233.6,146.4c-0.7,0-1.4,0.1-1.9,0.3
				c-0.6,0.2-1.1,0.5-1.5,1s-0.7,0.9-1,1.5c-0.3,0.6-0.4,1.2-0.5,2h9.1c0-0.7-0.1-1.4-0.3-2c-0.2-0.6-0.5-1.1-0.9-1.5
				c-0.4-0.4-0.8-0.7-1.3-0.9C234.8,146.5,234.3,146.4,233.6,146.4z"/>
			<path fill="#F7F7F7" d="M250.2,147.3c-0.1,0.1-0.2,0.2-0.3,0.2c-0.1,0-0.2-0.1-0.4-0.2c-0.2-0.1-0.4-0.2-0.6-0.4s-0.6-0.3-1-0.4
				c-0.4-0.1-0.9-0.2-1.4-0.2c-0.5,0-1,0.1-1.4,0.2s-0.8,0.3-1.1,0.6s-0.5,0.5-0.7,0.8c-0.2,0.3-0.2,0.7-0.2,1
				c0,0.4,0.1,0.8,0.3,1.1c0.2,0.3,0.5,0.5,0.9,0.7s0.8,0.4,1.2,0.5c0.5,0.1,0.9,0.3,1.4,0.4s1,0.3,1.4,0.5c0.5,0.2,0.9,0.4,1.2,0.7
				c0.4,0.3,0.7,0.6,0.9,1c0.2,0.4,0.3,0.9,0.3,1.4c0,0.6-0.1,1.2-0.3,1.7c-0.2,0.5-0.5,1-0.9,1.3c-0.4,0.4-0.9,0.7-1.5,0.9
				c-0.6,0.2-1.3,0.3-2.1,0.3c-1,0-1.8-0.2-2.5-0.5s-1.3-0.7-1.9-1.2l0.3-0.5c0-0.1,0.1-0.1,0.2-0.2s0.1-0.1,0.2-0.1
				c0.1,0,0.3,0.1,0.4,0.2c0.2,0.1,0.4,0.3,0.7,0.5c0.3,0.2,0.6,0.3,1.1,0.5c0.4,0.1,0.9,0.2,1.6,0.2c0.6,0,1.1-0.1,1.5-0.2
				s0.8-0.4,1.1-0.7c0.3-0.3,0.5-0.6,0.7-1c0.2-0.4,0.2-0.8,0.2-1.2c0-0.5-0.1-0.8-0.3-1.2c-0.2-0.3-0.5-0.6-0.9-0.8
				c-0.4-0.2-0.8-0.4-1.2-0.5c-0.5-0.1-0.9-0.3-1.4-0.4c-0.5-0.1-1-0.3-1.4-0.5c-0.5-0.2-0.9-0.4-1.2-0.7c-0.4-0.3-0.7-0.6-0.9-1
				c-0.2-0.4-0.3-0.9-0.3-1.4c0-0.5,0.1-1,0.3-1.4c0.2-0.5,0.5-0.9,0.9-1.2c0.4-0.3,0.9-0.6,1.4-0.8c0.6-0.2,1.2-0.3,1.9-0.3
				c0.8,0,1.6,0.1,2.2,0.4c0.7,0.2,1.3,0.6,1.8,1.1L250.2,147.3z"/>
		</g>
	</g>
	<path fill="#F7F7F7" d="M183.3,47.1h-37.9V9.2c0-2.9-2.3-5.2-5.2-5.2h-22.9c-2.9,0-5.2,2.3-5.2,5.2v37.9H74.3
		c-2.9,0-5.2,2.3-5.2,5.2v22.9c0,2.9,2.3,5.2,5.2,5.2h37.9v37.9c0,2.9,2.3,5.2,5.2,5.2h22.9c2.9,0,5.2-2.3,5.2-5.2V80.3h37.9
		c2.9,0,5.2-2.3,5.2-5.2V52.3C188.5,49.4,186.2,47.1,183.3,47.1z"/>
</g>
</svg>
