<?xml version="1.0" encoding="utf-8"?>
<!-- Generator: Adobe Illustrator 17.1.0, SVG Export Plug-In . SVG Version: 6.00 Build 0)  -->
<!DOCTYPE svg PUBLIC "-//W3C//DTD SVG 1.1//EN" "http://www.w3.org/Graphics/SVG/1.1/DTD/svg11.dtd">
<svg version="1.1" id="Capa_1" xmlns="http://www.w3.org/2000/svg" xmlns:xlink="http://www.w3.org/1999/xlink" x="0px" y="0px"
	 viewBox="0 0 67.6 67.6" enable-background="new 0 0 67.6 67.6" xml:space="preserve">
<path fill-rule="evenodd" clip-rule="evenodd" fill="#00E7B4" d="M33.8,1.4C15.8,1.4,1.1,16,1.1,34c0,18,14.6,32.6,32.6,32.6
	S66.4,52.1,66.4,34C66.4,16,51.8,1.4,33.8,1.4z M36.6,28.4c1.7,0,3.5,0,5.3,0c-0.2,2-0.4,4-0.6,6c-1.5,0-3,0-4.5,0
	c-0.2,5,0,11-0.1,17c-2.3,0-3.8,0-6.8,0c0-6,0-12,0-17c-1,0-2.6,0-3.7,0c0.1-2-0.1-4,0.1-6c1.1,0,2.2,0,3.3,0c0.1-5,0-8.1,2.6-9.9
	c2.2-1.5,9.7-1.3,9.7-1.3L41.7,23c0,0-4.2-0.5-5,0.8C36.1,24.9,36.5,26.4,36.6,28.4z"/>
</svg>
