<?xml version="1.0" encoding="utf-8"?>
<!-- Generator: Adobe Illustrator 17.1.0, SVG Export Plug-In . SVG Version: 6.00 Build 0)  -->
<!DOCTYPE svg PUBLIC "-//W3C//DTD SVG 1.1//EN" "http://www.w3.org/Graphics/SVG/1.1/DTD/svg11.dtd">
<svg version="1.1" id="Capa_1" xmlns="http://www.w3.org/2000/svg" xmlns:xlink="http://www.w3.org/1999/xlink" x="0px" y="0px"
	 viewBox="0 0 67.6 67.6" enable-background="new 0 0 67.6 67.6" xml:space="preserve">
<path fill="#00E7B4" d="M66.4,33.8c0-18-14.6-32.6-32.6-32.6c-18,0-32.6,14.6-32.6,32.6s14.6,32.6,32.6,32.6
	C51.8,66.4,66.4,51.8,66.4,33.8z M31.9,44.1l-13-13c-1-1-1-2.7,0-3.7c1-1,2.7-1,3.7,0l11.2,11.2L45,27.4c1-1,2.7-1,3.7,0
	c1,1,1,2.7,0,3.7l-13,13c-0.5,0.5-1.2,0.8-1.9,0.8C33.1,44.9,32.4,44.6,31.9,44.1z"/>
</svg>
