<?xml version="1.0" encoding="utf-8"?>
<!-- Generator: Adobe Illustrator 16.0.0, SVG Export Plug-In . SVG Version: 6.00 Build 0)  -->
<!DOCTYPE svg PUBLIC "-//W3C//DTD SVG 1.1//EN" "http://www.w3.org/Graphics/SVG/1.1/DTD/svg11.dtd">
<svg version="1.1" id="Layer_1" xmlns="http://www.w3.org/2000/svg" xmlns:xlink="http://www.w3.org/1999/xlink" x="0px" y="0px"
	 width="35.629px" height="35.631px" viewBox="0 0 35.629 35.631" enable-background="new 0 0 35.629 35.631" xml:space="preserve">
<path opacity="0.9" fill="#FFFFFF" d="M17.815,0.478c-9.576,0-17.337,7.763-17.337,17.337c0,9.576,7.762,17.339,17.337,17.339
	c9.575,0,17.337-7.763,17.337-17.339C35.152,8.24,27.39,0.478,17.815,0.478z M25.727,16.385l-6.893,6.892
	c-0.281,0.281-0.652,0.414-1.02,0.406c-0.369,0.008-0.739-0.125-1.02-0.406l-6.893-6.892c-0.543-0.545-0.543-1.427,0-1.97
	c0.544-0.544,1.426-0.544,1.969,0l5.943,5.942l5.942-5.942c0.544-0.544,1.426-0.544,1.97,0
	C26.271,14.958,26.271,15.84,25.727,16.385z"/>
</svg>
