<?xml version="1.0" encoding="utf-8"?>
<!-- Generator: Adobe Illustrator 17.1.0, SVG Export Plug-In . SVG Version: 6.00 Build 0)  -->
<!DOCTYPE svg PUBLIC "-//W3C//DTD SVG 1.1//EN" "http://www.w3.org/Graphics/SVG/1.1/DTD/svg11.dtd">
<svg version="1.1" id="Capa_1" xmlns="http://www.w3.org/2000/svg" xmlns:xlink="http://www.w3.org/1999/xlink" x="0px" y="0px"
	 viewBox="0 0 80 80" enable-background="new 0 0 80 80" xml:space="preserve">
<g>
	<path fill="#F8F8F8" d="M37.6,42.3c-6.7,0-13.2,0-19.8,0c-0.5,0-1.1-0.1-1.6-0.1c-1-0.2-1.6-0.8-1.6-1.7c0-0.7,0.4-1.5,0.8-2.2
		c0.2-0.3,0.8-0.5,1.2-0.7c14.8-7.4,29.6-14.8,44.5-22.2c0.2-0.1,0.5-0.3,0.7-0.4c1-0.4,2-0.4,2.8,0.5c0.8,0.8,0.8,1.8,0.3,2.8
		c-2.3,4.5-4.5,9.1-6.8,13.6c-5.3,10.7-10.7,21.3-16,32c-0.7,1.3-1.6,1.8-2.7,1.5c-1.2-0.3-1.8-1.1-1.8-2.6c0-0.2,0-0.5,0-0.7
		c0-6.1,0-12.2,0-18.3C37.6,43.2,37.6,42.8,37.6,42.3z"/>
</g>
</svg>
