<?xml version="1.0" encoding="utf-8"?>
<!-- Generator: Adobe Illustrator 16.0.0, SVG Export Plug-In . SVG Version: 6.00 Build 0)  -->
<!DOCTYPE svg PUBLIC "-//W3C//DTD SVG 1.1//EN" "http://www.w3.org/Graphics/SVG/1.1/DTD/svg11.dtd">
<svg version="1.1" id="Layer_1" xmlns="http://www.w3.org/2000/svg" xmlns:xlink="http://www.w3.org/1999/xlink" x="0px" y="0px"
	 width="80px" height="80px" viewBox="0 0 80 80" enable-background="new 0 0 80 80" xml:space="preserve">
<g>
	<defs>
		<rect id="SVGID_1_" width="80" height="80"/>
	</defs>
	<clipPath id="SVGID_2_">
		<use xlink:href="#SVGID_1_"  overflow="visible"/>
	</clipPath>
	<path clip-path="url(#SVGID_2_)" fill="#F8F8F8" d="M13.622,26.316c0.138-4.053,1.676-7.581,4.449-10.454
		c1.848-1.916,4.484-2.12,7.029-2.175c0.323-0.007,0.757,0.312,0.963,0.605c0.596,0.843,1.117,1.741,1.642,2.633
		c1.478,2.512,2.93,5.041,4.421,7.546c0.98,1.646,0.989,2.388-0.385,3.706c-1.352,1.298-2.854,2.439-4.25,3.694
		c-1.718,1.543-1.732,2.211-0.649,4.262c3.927,7.438,9.605,13.095,17.021,17.049c2.078,1.107,2.815,1.069,4.357-0.681
		c1.215-1.379,2.361-2.818,3.601-4.175c1.142-1.248,2.157-1.329,3.626-0.478c3.006,1.743,6.016,3.479,9.033,5.199
		c1.968,1.123,2.024,1.501,1.819,3.767c-0.4,4.443-3.253,6.719-6.957,8.345c-3.71,1.629-7.405,1.375-11.221,0.225
		C35.712,61.644,26.7,53.576,19.648,43.085c-3.032-4.51-4.73-9.656-5.855-14.968C13.67,27.535,13.676,26.925,13.622,26.316"/>
</g>
</svg>
