<?xml version="1.0" encoding="utf-8"?>
<!-- Generator: Adobe Illustrator 17.1.0, SVG Export Plug-In . SVG Version: 6.00 Build 0)  -->
<!DOCTYPE svg PUBLIC "-//W3C//DTD SVG 1.1//EN" "http://www.w3.org/Graphics/SVG/1.1/DTD/svg11.dtd">
<svg version="1.1" id="Capa_1" xmlns="http://www.w3.org/2000/svg" xmlns:xlink="http://www.w3.org/1999/xlink" x="0px" y="0px"
	 viewBox="0 0 80 80" enable-background="new 0 0 80 80" xml:space="preserve">
<g>
	<path fill="#F8F8F8" d="M8.5,31.7c7.9,5.6,15.8,11.1,23.7,16.7c1.9,1.3,3.9,2.3,6.2,2.7c1.8,0.3,3.5,0.2,5.2-0.6
		c1.8-0.9,3.7-1.9,5.4-3c6.3-4.3,12.5-8.7,18.7-13c1.2-0.9,2.4-1.9,3.7-2.9c0,0.4,0.1,0.7,0.1,1.1c0,8.7,0,17.5,0,26.2
		c0,3.3-2.1,5.6-5.5,5.9c-0.3,0-0.6,0-0.9,0c-16.8,0-33.5,0-50.3,0c-2.5,0-4.6-0.9-5.7-3.2c-0.3-0.7-0.6-1.4-0.6-2.1
		c0-9.1,0-18.3,0-27.4C8.5,31.9,8.5,31.7,8.5,31.7z"/>
	<path fill="#F8F8F8" d="M40,15.3c8.4,0,16.9,0,25.3,0c2.4,0,4.2,0.8,5.5,2.9c1,1.7,0.9,3.4,0.3,5.2c-0.9,3.1-3,5.3-5.6,7.1
		c-6.6,4.7-13.3,9.3-19.9,13.9c-0.7,0.5-1.4,0.9-2.1,1.3c-2.3,1.4-4.7,1.4-7,0c-2-1.3-3.9-2.6-5.9-4c-5.2-3.6-10.3-7.2-15.5-10.8
		c-2.1-1.4-3.8-3.1-5.2-5.2c-1.1-1.6-1.7-3.4-1.3-5.3c0.7-3.3,2.3-5.1,6-5.1c5.7,0,11.3,0,17,0C34.4,15.3,37.2,15.3,40,15.3z"/>
</g>
</svg>
