<?xml version="1.0" encoding="utf-8"?>
<!-- Generator: Adobe Illustrator 17.1.0, SVG Export Plug-In . SVG Version: 6.00 Build 0)  -->
<!DOCTYPE svg PUBLIC "-//W3C//DTD SVG 1.1//EN" "http://www.w3.org/Graphics/SVG/1.1/DTD/svg11.dtd">
<svg version="1.1" id="Capa_1" xmlns="http://www.w3.org/2000/svg" xmlns:xlink="http://www.w3.org/1999/xlink" x="0px" y="0px"
	 viewBox="0 0 67.6 67.6" enable-background="new 0 0 67.6 67.6" xml:space="preserve">
<path fill-rule="evenodd" clip-rule="evenodd" fill="#00E7B4" d="M33.8,1.1c-18,0-32.6,14.6-32.6,32.6c0,18,14.6,32.6,32.6,32.6
	s32.6-14.6,32.6-32.6C66.4,15.8,51.8,1.1,33.8,1.1z M50.6,25.3c0,0.4,0,0.7,0,1.1c0,11.3-8.6,24.3-24.3,24.3
	c-4.8,0-9.3-1.4-13.1-3.8c0.7,0.1,1.3,0.1,2,0.1c4,0,7.7-1.4,10.6-3.7c-3.7-0.1-6.9-2.5-8-5.9c0.5,0.1,1.1,0.1,1.6,0.1
	c0.8,0,1.5-0.1,2.2-0.3C17.9,36.5,15,33,15,28.9c0,0,0-0.1,0-0.1c1.1,0.6,2.5,1,3.9,1.1c-2.3-1.5-3.8-4.1-3.8-7.1
	c0-1.6,0.4-3,1.2-4.3c4.2,5.2,10.5,8.6,17.6,8.9c-0.1-0.6-0.2-1.3-0.2-1.9c0-4.7,3.8-8.5,8.5-8.5c2.4,0,4.7,1,6.2,2.7
	c1.9-0.4,3.8-1.1,5.4-2.1c-0.6,2-2,3.7-3.7,4.7c1.7-0.2,3.4-0.7,4.9-1.3C53.7,22.6,52.3,24.1,50.6,25.3z"/>
</svg>
