<?xml version="1.0" encoding="utf-8"?>
<!-- Generator: Adobe Illustrator 18.0.0, SVG Export Plug-In . SVG Version: 6.00 Build 0)  -->
<!DOCTYPE svg PUBLIC "-//W3C//DTD SVG 1.1//EN" "http://www.w3.org/Graphics/SVG/1.1/DTD/svg11.dtd">
<svg version="1.1" id="Capa_1" xmlns="http://www.w3.org/2000/svg" xmlns:xlink="http://www.w3.org/1999/xlink" x="0px" y="0px"
	 viewBox="0 0 359.6 80.5" enable-background="new 0 0 359.6 80.5" xml:space="preserve">
<g>
	<g>
		<path fill="#2A694F" d="M56.6,63.1c-0.2-0.2-0.6-0.3-1-0.3c-0.3,0-0.6,0.1-0.9,0.2c-0.2,0.1-0.4,0.3-0.6,0.5
			c-0.1,0.2-0.2,0.5-0.3,0.7c-0.1,0.3-0.1,0.6-0.1,0.9c0,0.3,0,0.5,0.1,0.8c0.1,0.3,0.2,0.5,0.3,0.7c0.1,0.2,0.3,0.4,0.5,0.5
			c0.2,0.1,0.5,0.2,0.8,0.2c0.5,0,0.8-0.1,1.1-0.4c0.3-0.3,0.4-0.6,0.5-1.1h1c-0.1,0.7-0.4,1.3-0.8,1.7c-0.4,0.4-1,0.6-1.8,0.6
			c-0.4,0-0.8-0.1-1.2-0.2c-0.3-0.1-0.6-0.3-0.9-0.6c-0.2-0.3-0.4-0.6-0.5-1c-0.1-0.4-0.2-0.8-0.2-1.2c0-0.4,0.1-0.9,0.2-1.2
			c0.1-0.4,0.3-0.7,0.5-1c0.2-0.3,0.5-0.5,0.9-0.7c0.3-0.2,0.7-0.2,1.2-0.2c0.3,0,0.6,0,0.9,0.1c0.3,0.1,0.5,0.2,0.8,0.4
			c0.2,0.2,0.4,0.4,0.5,0.6c0.1,0.3,0.2,0.6,0.3,0.9h-1C57,63.5,56.8,63.3,56.6,63.1z"/>
		<path fill="#2A694F" d="M60,63.8c0.1-0.4,0.3-0.7,0.5-1c0.2-0.3,0.5-0.5,0.9-0.7c0.4-0.2,0.8-0.2,1.2-0.2c0.5,0,0.9,0.1,1.2,0.2
			c0.3,0.2,0.6,0.4,0.9,0.7c0.2,0.3,0.4,0.6,0.5,1c0.1,0.4,0.2,0.8,0.2,1.2s-0.1,0.8-0.2,1.2c-0.1,0.4-0.3,0.7-0.5,1
			c-0.2,0.3-0.5,0.5-0.9,0.7c-0.3,0.2-0.8,0.2-1.2,0.2c-0.5,0-0.9-0.1-1.2-0.2c-0.4-0.2-0.7-0.4-0.9-0.7c-0.2-0.3-0.4-0.6-0.5-1
			c-0.1-0.4-0.2-0.8-0.2-1.2S59.9,64.1,60,63.8z M61,65.9c0.1,0.3,0.2,0.5,0.4,0.7c0.2,0.2,0.4,0.3,0.6,0.4c0.2,0.1,0.5,0.1,0.7,0.1
			c0.2,0,0.5,0,0.7-0.1c0.2-0.1,0.4-0.2,0.6-0.4c0.2-0.2,0.3-0.4,0.4-0.7c0.1-0.3,0.1-0.6,0.1-1c0-0.4,0-0.7-0.1-1
			c-0.1-0.3-0.2-0.5-0.4-0.7c-0.2-0.2-0.4-0.3-0.6-0.4c-0.2-0.1-0.5-0.1-0.7-0.1c-0.2,0-0.5,0-0.7,0.1c-0.2,0.1-0.4,0.2-0.6,0.4
			c-0.2,0.2-0.3,0.4-0.4,0.7c-0.1,0.3-0.1,0.6-0.1,1C60.9,65.3,60.9,65.7,61,65.9z"/>
		<path fill="#2A694F" d="M68.6,62v0.9h0c0.4-0.7,1.1-1,1.9-1c0.4,0,0.7,0.1,1,0.2c0.3,0.2,0.5,0.4,0.6,0.8c0.2-0.3,0.5-0.6,0.8-0.7
			c0.3-0.2,0.7-0.3,1.1-0.3c0.3,0,0.6,0,0.8,0.1c0.2,0.1,0.4,0.2,0.6,0.3c0.2,0.1,0.3,0.3,0.4,0.5c0.1,0.2,0.1,0.5,0.1,0.8v4.3h-1
			v-3.9c0-0.2,0-0.4,0-0.5c0-0.2-0.1-0.3-0.2-0.4c-0.1-0.1-0.2-0.2-0.3-0.3c-0.1-0.1-0.3-0.1-0.6-0.1c-0.5,0-0.8,0.1-1.1,0.4
			s-0.4,0.6-0.4,1.1v3.7h-1v-3.9c0-0.2,0-0.4-0.1-0.5c0-0.2-0.1-0.3-0.2-0.4c-0.1-0.1-0.2-0.2-0.3-0.3c-0.1-0.1-0.3-0.1-0.5-0.1
			c-0.3,0-0.5,0.1-0.7,0.2c-0.2,0.1-0.4,0.3-0.5,0.4c-0.1,0.2-0.2,0.3-0.3,0.5c-0.1,0.2-0.1,0.3-0.1,0.4v3.7h-1V62H68.6z"/>
		<path fill="#2A694F" d="M82.2,67.9V67h0c-0.2,0.4-0.5,0.6-0.8,0.8c-0.3,0.2-0.7,0.3-1.1,0.3c-0.4,0-0.7-0.1-1-0.2
			c-0.3-0.1-0.5-0.2-0.6-0.4c-0.2-0.2-0.3-0.4-0.3-0.7c-0.1-0.3-0.1-0.6-0.1-0.9V62h1v4c0,0.4,0.1,0.7,0.3,0.9
			c0.2,0.2,0.5,0.3,0.9,0.3c0.3,0,0.5,0,0.8-0.1c0.2-0.1,0.4-0.2,0.5-0.4c0.1-0.2,0.2-0.4,0.3-0.6c0.1-0.2,0.1-0.5,0.1-0.7V62h1v5.9
			H82.2z"/>
		<path fill="#2A694F" d="M86.5,62V63h0c0.4-0.7,1-1.1,1.9-1.1c0.4,0,0.7,0.1,1,0.2c0.3,0.1,0.5,0.3,0.6,0.4
			c0.2,0.2,0.3,0.4,0.3,0.7c0.1,0.3,0.1,0.6,0.1,0.9v3.9h-1v-4c0-0.4-0.1-0.7-0.3-0.9c-0.2-0.2-0.5-0.3-0.9-0.3
			c-0.3,0-0.5,0-0.8,0.1c-0.2,0.1-0.4,0.2-0.5,0.4c-0.1,0.2-0.3,0.4-0.3,0.6c-0.1,0.2-0.1,0.5-0.1,0.7v3.3h-1V62H86.5z"/>
		<path fill="#2A694F" d="M92.9,61v-1.2h1V61H92.9z M93.9,62v5.9h-1V62H93.9z"/>
		<path fill="#2A694F" d="M99.9,63.1c-0.2-0.2-0.6-0.3-1-0.3c-0.3,0-0.6,0.1-0.9,0.2c-0.2,0.1-0.4,0.3-0.6,0.5
			c-0.1,0.2-0.2,0.5-0.3,0.7c-0.1,0.3-0.1,0.6-0.1,0.9c0,0.3,0,0.5,0.1,0.8c0.1,0.3,0.2,0.5,0.3,0.7c0.1,0.2,0.3,0.4,0.5,0.5
			c0.2,0.1,0.5,0.2,0.8,0.2c0.5,0,0.8-0.1,1.1-0.4c0.3-0.3,0.4-0.6,0.5-1.1h1c-0.1,0.7-0.4,1.3-0.8,1.7c-0.4,0.4-1,0.6-1.8,0.6
			c-0.4,0-0.8-0.1-1.2-0.2c-0.3-0.1-0.6-0.3-0.9-0.6c-0.2-0.3-0.4-0.6-0.5-1c-0.1-0.4-0.2-0.8-0.2-1.2c0-0.4,0.1-0.9,0.2-1.2
			c0.1-0.4,0.3-0.7,0.5-1c0.2-0.3,0.5-0.5,0.9-0.7c0.3-0.2,0.7-0.2,1.2-0.2c0.3,0,0.6,0,0.9,0.1c0.3,0.1,0.5,0.2,0.8,0.4
			c0.2,0.2,0.4,0.4,0.5,0.6c0.1,0.3,0.2,0.6,0.3,0.9h-1C100.3,63.5,100.1,63.3,99.9,63.1z"/>
		<path fill="#2A694F" d="M107.9,68.1c-0.2,0-0.4-0.1-0.6-0.2c-0.1-0.1-0.2-0.4-0.2-0.7c-0.3,0.3-0.6,0.5-0.9,0.7
			c-0.3,0.1-0.7,0.2-1.1,0.2c-0.3,0-0.5,0-0.7-0.1c-0.2-0.1-0.4-0.2-0.6-0.3c-0.2-0.1-0.3-0.3-0.4-0.5c-0.1-0.2-0.2-0.5-0.2-0.8
			c0-0.3,0.1-0.6,0.2-0.8c0.1-0.2,0.3-0.4,0.4-0.5c0.2-0.1,0.4-0.2,0.6-0.3c0.2-0.1,0.5-0.1,0.7-0.2c0.3-0.1,0.5-0.1,0.8-0.1
			c0.2,0,0.4-0.1,0.6-0.1c0.2,0,0.3-0.1,0.4-0.2c0.1-0.1,0.2-0.2,0.2-0.4c0-0.2,0-0.4-0.1-0.5c-0.1-0.1-0.2-0.2-0.3-0.3
			c-0.1-0.1-0.3-0.1-0.4-0.1c-0.2,0-0.3,0-0.5,0c-0.4,0-0.7,0.1-1,0.2c-0.3,0.2-0.4,0.5-0.4,0.9h-1c0-0.4,0.1-0.7,0.2-0.9
			c0.1-0.3,0.3-0.5,0.5-0.6c0.2-0.2,0.5-0.3,0.8-0.3c0.3-0.1,0.6-0.1,0.9-0.1c0.3,0,0.5,0,0.8,0.1c0.3,0,0.5,0.1,0.7,0.2
			c0.2,0.1,0.4,0.3,0.5,0.5c0.1,0.2,0.2,0.5,0.2,0.8v3c0,0.2,0,0.4,0,0.5c0,0.1,0.1,0.2,0.3,0.2c0.1,0,0.2,0,0.3-0.1v0.8
			C108.5,68,108.2,68.1,107.9,68.1z M106.6,65.1c-0.2,0-0.4,0.1-0.6,0.1c-0.2,0-0.4,0.1-0.6,0.1c-0.2,0-0.4,0.1-0.6,0.2
			c-0.2,0.1-0.3,0.2-0.4,0.3c-0.1,0.1-0.2,0.3-0.2,0.6c0,0.2,0,0.3,0.1,0.4c0.1,0.1,0.1,0.2,0.2,0.3c0.1,0.1,0.2,0.1,0.4,0.1
			c0.1,0,0.3,0,0.4,0c0.3,0,0.6,0,0.8-0.1c0.2-0.1,0.4-0.2,0.6-0.3c0.1-0.1,0.2-0.3,0.3-0.4c0.1-0.2,0.1-0.3,0.1-0.4v-1
			C107,65,106.8,65,106.6,65.1z"/>
		<path fill="#2A694F" d="M114,63.1c-0.2-0.2-0.6-0.3-1-0.3c-0.3,0-0.6,0.1-0.9,0.2c-0.2,0.1-0.4,0.3-0.6,0.5
			c-0.1,0.2-0.2,0.5-0.3,0.7c-0.1,0.3-0.1,0.6-0.1,0.9c0,0.3,0,0.5,0.1,0.8c0.1,0.3,0.2,0.5,0.3,0.7c0.1,0.2,0.3,0.4,0.5,0.5
			c0.2,0.1,0.5,0.2,0.8,0.2c0.5,0,0.8-0.1,1.1-0.4c0.3-0.3,0.4-0.6,0.5-1.1h1c-0.1,0.7-0.4,1.3-0.8,1.7c-0.4,0.4-1,0.6-1.8,0.6
			c-0.4,0-0.8-0.1-1.2-0.2c-0.3-0.1-0.6-0.3-0.9-0.6c-0.2-0.3-0.4-0.6-0.5-1c-0.1-0.4-0.2-0.8-0.2-1.2c0-0.4,0.1-0.9,0.2-1.2
			c0.1-0.4,0.3-0.7,0.5-1c0.2-0.3,0.5-0.5,0.9-0.7c0.3-0.2,0.7-0.2,1.2-0.2c0.3,0,0.6,0,0.9,0.1c0.3,0.1,0.5,0.2,0.8,0.4
			c0.2,0.2,0.4,0.4,0.5,0.6c0.1,0.3,0.2,0.6,0.3,0.9h-1C114.4,63.5,114.3,63.3,114,63.1z"/>
		<path fill="#2A694F" d="M117.7,61v-1.2h1V61H117.7z M118.6,62v5.9h-1V62H118.6z"/>
		<path fill="#2A694F" d="M121,63.8c0.1-0.4,0.3-0.7,0.5-1c0.2-0.3,0.5-0.5,0.9-0.7c0.4-0.2,0.8-0.2,1.2-0.2c0.5,0,0.9,0.1,1.2,0.2
			c0.3,0.2,0.6,0.4,0.9,0.7c0.2,0.3,0.4,0.6,0.5,1c0.1,0.4,0.2,0.8,0.2,1.2s-0.1,0.8-0.2,1.2c-0.1,0.4-0.3,0.7-0.5,1
			c-0.2,0.3-0.5,0.5-0.9,0.7c-0.3,0.2-0.8,0.2-1.2,0.2c-0.5,0-0.9-0.1-1.2-0.2c-0.4-0.2-0.7-0.4-0.9-0.7c-0.2-0.3-0.4-0.6-0.5-1
			c-0.1-0.4-0.2-0.8-0.2-1.2S120.9,64.1,121,63.8z M122,65.9c0.1,0.3,0.2,0.5,0.4,0.7c0.2,0.2,0.4,0.3,0.6,0.4
			c0.2,0.1,0.5,0.1,0.7,0.1c0.2,0,0.5,0,0.7-0.1c0.2-0.1,0.4-0.2,0.6-0.4c0.2-0.2,0.3-0.4,0.4-0.7c0.1-0.3,0.1-0.6,0.1-1
			c0-0.4,0-0.7-0.1-1c-0.1-0.3-0.2-0.5-0.4-0.7c-0.2-0.2-0.4-0.3-0.6-0.4c-0.2-0.1-0.5-0.1-0.7-0.1c-0.2,0-0.5,0-0.7,0.1
			c-0.2,0.1-0.4,0.2-0.6,0.4c-0.2,0.2-0.3,0.4-0.4,0.7c-0.1,0.3-0.1,0.6-0.1,1C121.8,65.3,121.9,65.7,122,65.9z M125.2,59.6
			l-1.5,1.6H123l1-1.6H125.2z"/>
		<path fill="#2A694F" d="M129.5,62V63h0c0.4-0.7,1-1.1,1.9-1.1c0.4,0,0.7,0.1,1,0.2c0.3,0.1,0.5,0.3,0.6,0.4
			c0.2,0.2,0.3,0.4,0.3,0.7c0.1,0.3,0.1,0.6,0.1,0.9v3.9h-1v-4c0-0.4-0.1-0.7-0.3-0.9c-0.2-0.2-0.5-0.3-0.9-0.3
			c-0.3,0-0.5,0-0.8,0.1c-0.2,0.1-0.4,0.2-0.5,0.4c-0.1,0.2-0.3,0.4-0.3,0.6c-0.1,0.2-0.1,0.5-0.1,0.7v3.3h-1V62H129.5z"/>
		<path fill="#2A694F" d="M140.1,61v-1.2h1V61H140.1z M141.1,62v5.9h-1V62H141.1z"/>
		<path fill="#2A694F" d="M144.5,62V63h0c0.4-0.7,1-1.1,1.9-1.1c0.4,0,0.7,0.1,1,0.2c0.3,0.1,0.5,0.3,0.6,0.4
			c0.2,0.2,0.3,0.4,0.3,0.7c0.1,0.3,0.1,0.6,0.1,0.9v3.9h-1v-4c0-0.4-0.1-0.7-0.3-0.9c-0.2-0.2-0.5-0.3-0.9-0.3
			c-0.3,0-0.5,0-0.8,0.1c-0.2,0.1-0.4,0.2-0.5,0.4c-0.1,0.2-0.3,0.4-0.3,0.6c-0.1,0.2-0.1,0.5-0.1,0.7v3.3h-1V62H144.5z"/>
		<path fill="#2A694F" d="M153.4,62v0.9h-1.2v3.7c0,0.1,0,0.2,0,0.3c0,0.1,0.1,0.1,0.1,0.2c0.1,0,0.1,0.1,0.2,0.1c0.1,0,0.2,0,0.4,0
			h0.4v0.9h-0.7c-0.2,0-0.5,0-0.6-0.1c-0.2,0-0.3-0.1-0.4-0.2c-0.1-0.1-0.2-0.2-0.2-0.4c-0.1-0.2-0.1-0.4-0.1-0.7v-3.8h-1V62h1v-1.8
			h1V62H153.4z"/>
		<path fill="#2A694F" d="M159.6,67.6c-0.4,0.3-1,0.5-1.6,0.5c-0.5,0-0.9-0.1-1.2-0.2c-0.3-0.2-0.6-0.4-0.9-0.6
			c-0.2-0.3-0.4-0.6-0.5-1c-0.1-0.4-0.2-0.8-0.2-1.2c0-0.4,0.1-0.9,0.2-1.2c0.1-0.4,0.3-0.7,0.6-1c0.2-0.3,0.5-0.5,0.9-0.6
			c0.3-0.2,0.7-0.2,1.1-0.2c0.5,0,0.9,0.1,1.3,0.3c0.3,0.2,0.6,0.5,0.8,0.8c0.2,0.3,0.3,0.7,0.4,1.1c0.1,0.4,0.1,0.8,0.1,1.1h-4.4
			c0,0.3,0,0.5,0.1,0.7c0.1,0.2,0.2,0.4,0.3,0.6c0.2,0.2,0.3,0.3,0.6,0.4c0.2,0.1,0.5,0.2,0.8,0.2c0.4,0,0.7-0.1,1-0.3
			c0.3-0.2,0.4-0.5,0.5-0.9h0.9C160.3,66.7,160,67.2,159.6,67.6z M159.3,63.8c-0.1-0.2-0.2-0.4-0.3-0.5c-0.1-0.1-0.3-0.3-0.5-0.4
			c-0.2-0.1-0.4-0.1-0.7-0.1c-0.2,0-0.5,0-0.7,0.1c-0.2,0.1-0.4,0.2-0.5,0.4c-0.1,0.2-0.3,0.3-0.3,0.5c-0.1,0.2-0.1,0.4-0.1,0.6h3.4
			C159.5,64.2,159.4,64,159.3,63.8z"/>
		<path fill="#2A694F" d="M166.9,69.6c-0.4,0.5-1.1,0.7-2.1,0.7c-0.3,0-0.5,0-0.8-0.1c-0.3-0.1-0.5-0.2-0.8-0.3
			c-0.2-0.1-0.4-0.3-0.6-0.5c-0.2-0.2-0.2-0.5-0.2-0.8h1c0,0.2,0.1,0.3,0.2,0.4c0.1,0.1,0.2,0.2,0.4,0.3c0.1,0.1,0.3,0.1,0.5,0.2
			c0.2,0,0.3,0.1,0.5,0.1c0.3,0,0.6-0.1,0.8-0.2c0.2-0.1,0.4-0.3,0.5-0.5c0.1-0.2,0.2-0.4,0.3-0.7c0.1-0.3,0.1-0.6,0.1-0.9v-0.4h0
			c-0.2,0.4-0.4,0.6-0.8,0.8c-0.3,0.2-0.7,0.3-1.1,0.3c-0.4,0-0.8-0.1-1.1-0.2c-0.3-0.2-0.6-0.4-0.8-0.6c-0.2-0.3-0.4-0.6-0.5-0.9
			c-0.1-0.4-0.2-0.7-0.2-1.1c0-0.3,0-0.7,0.1-1.1c0.1-0.4,0.2-0.7,0.5-1c0.2-0.3,0.5-0.5,0.8-0.7c0.3-0.2,0.8-0.3,1.3-0.3
			c0.4,0,0.7,0.1,1,0.2c0.3,0.2,0.5,0.4,0.7,0.7h0V62h0.9v5.4C167.5,68.4,167.3,69.1,166.9,69.6z M165.7,66.9
			c0.2-0.1,0.4-0.3,0.5-0.5c0.1-0.2,0.2-0.5,0.3-0.7c0.1-0.3,0.1-0.5,0.1-0.8c0-0.3,0-0.5-0.1-0.8c-0.1-0.3-0.2-0.5-0.3-0.7
			c-0.1-0.2-0.3-0.4-0.5-0.5c-0.2-0.1-0.5-0.2-0.8-0.2c-0.3,0-0.6,0.1-0.8,0.2c-0.2,0.1-0.4,0.3-0.5,0.5c-0.1,0.2-0.2,0.4-0.3,0.7
			c-0.1,0.3-0.1,0.5-0.1,0.8c0,0.3,0,0.5,0.1,0.8c0.1,0.3,0.1,0.5,0.3,0.7c0.1,0.2,0.3,0.4,0.5,0.5c0.2,0.1,0.5,0.2,0.8,0.2
			S165.4,67.1,165.7,66.9z"/>
		<path fill="#2A694F" d="M170.9,62v1.2h0c0.2-0.5,0.5-0.8,0.9-1.1c0.3-0.2,0.8-0.3,1.3-0.3v1c-0.4,0-0.7,0.1-1,0.2
			c-0.3,0.1-0.5,0.3-0.7,0.5c-0.2,0.2-0.3,0.5-0.4,0.7c-0.1,0.3-0.1,0.6-0.1,1v2.6h-1V62H170.9z"/>
		<path fill="#2A694F" d="M179.2,68.1c-0.2,0-0.4-0.1-0.6-0.2c-0.1-0.1-0.2-0.4-0.2-0.7c-0.3,0.3-0.6,0.5-0.9,0.7
			c-0.3,0.1-0.7,0.2-1.1,0.2c-0.3,0-0.5,0-0.7-0.1c-0.2-0.1-0.4-0.2-0.6-0.3c-0.2-0.1-0.3-0.3-0.4-0.5c-0.1-0.2-0.2-0.5-0.2-0.8
			c0-0.3,0.1-0.6,0.2-0.8c0.1-0.2,0.3-0.4,0.4-0.5c0.2-0.1,0.4-0.2,0.6-0.3c0.2-0.1,0.5-0.1,0.7-0.2c0.3-0.1,0.5-0.1,0.8-0.1
			c0.2,0,0.4-0.1,0.6-0.1c0.2,0,0.3-0.1,0.4-0.2c0.1-0.1,0.2-0.2,0.2-0.4c0-0.2,0-0.4-0.1-0.5c-0.1-0.1-0.2-0.2-0.3-0.3
			c-0.1-0.1-0.3-0.1-0.4-0.1c-0.2,0-0.3,0-0.5,0c-0.4,0-0.7,0.1-1,0.2c-0.3,0.2-0.4,0.5-0.4,0.9h-1c0-0.4,0.1-0.7,0.2-0.9
			c0.1-0.3,0.3-0.5,0.5-0.6c0.2-0.2,0.5-0.3,0.8-0.3c0.3-0.1,0.6-0.1,0.9-0.1c0.3,0,0.5,0,0.8,0.1c0.3,0,0.5,0.1,0.7,0.2
			c0.2,0.1,0.4,0.3,0.5,0.5c0.1,0.2,0.2,0.5,0.2,0.8v3c0,0.2,0,0.4,0,0.5c0,0.1,0.1,0.2,0.3,0.2c0.1,0,0.2,0,0.3-0.1v0.8
			C179.8,68,179.5,68.1,179.2,68.1z M177.9,65.1c-0.2,0-0.4,0.1-0.6,0.1c-0.2,0-0.4,0.1-0.6,0.1c-0.2,0-0.4,0.1-0.6,0.2
			c-0.2,0.1-0.3,0.2-0.4,0.3c-0.1,0.1-0.2,0.3-0.2,0.6c0,0.2,0,0.3,0.1,0.4c0.1,0.1,0.1,0.2,0.2,0.3c0.1,0.1,0.2,0.1,0.4,0.1
			c0.1,0,0.3,0,0.4,0c0.3,0,0.6,0,0.8-0.1c0.2-0.1,0.4-0.2,0.6-0.3c0.1-0.1,0.2-0.3,0.3-0.4c0.1-0.2,0.1-0.3,0.1-0.4v-1
			C178.3,65,178.1,65,177.9,65.1z"/>
		<path fill="#2A694F" d="M182.9,59.8v8.1h-1v-8.1H182.9z"/>
	</g>
	<g>
		<path fill="#2A694F" d="M40.2,27.9c1.9-1.9,3.7-2.9,5.3-2.9c1,0,1.7,0.3,2.4,0.9c0.6,0.6,0.9,1.4,0.9,2.2c0,0.7-0.2,1.3-0.6,1.8
			c-0.4,0.5-0.9,0.7-1.5,0.7c-1.1,0-1.8-0.7-2.2-2c-0.2-0.6-0.4-0.9-0.8-0.9c-0.6,0-1.4,0.4-2.1,1.3c0.8,1.1,1.4,2.1,1.7,2.9
			c0.3,0.8,0.5,1.7,0.5,2.7c0,1.7-0.4,3.1-1.2,4.4c-0.8,1.3-2.1,2.4-4,3.4c-1.9,1-3.6,1.5-5.3,1.5H30c-2.2,0-3.7,0.2-4.4,0.7
			c-0.7,0.5-1.1,1.2-1.1,2.1c0,0.7,0.3,1.3,0.9,1.7c0.6,0.4,1.7,0.6,3.3,0.6l7.1-0.1c3.6,0,6.1,0.6,7.7,1.8c1.6,1.2,2.4,2.8,2.4,4.9
			c0,2.3-0.9,4.2-2.7,5.8c-2.5,2.2-6.2,3.3-11.2,3.3c-4.1,0-7.1-0.8-9.1-2.3c-1.6-1.2-2.3-2.5-2.3-4c0-1.1,0.5-2.2,1.5-3.1
			c1-0.9,2.7-1.6,5-2.1c-1.9-0.5-3.3-1.1-4.3-2c-1-0.9-1.4-2-1.4-3.3c0-1.2,0.4-2.3,1.2-3.2c0.8-0.9,2.1-1.7,4-2.3
			c-1.6-0.9-2.8-2-3.7-3.2c-0.8-1.3-1.2-2.7-1.2-4.4c0-2.6,1-4.8,3.1-6.5c2-1.8,4.7-2.6,7.9-2.6c1.3,0,2.6,0.2,3.9,0.6
			C37.8,26.5,39,27.1,40.2,27.9z M34.4,53.1c-3.5,0-6,0.5-7.5,1.5c-1.5,1-2.2,2.1-2.2,3.5c0,1.3,0.6,2.3,1.7,3.1
			c1.5,1,3.6,1.5,6.3,1.5c3.3,0,5.7-0.5,7.4-1.6c1.7-1.1,2.5-2.3,2.5-3.6c0-0.8-0.3-1.5-0.8-2.2c-0.5-0.7-1.3-1.2-2.5-1.5
			C38.2,53.3,36.5,53.1,34.4,53.1z M32.7,27.4c-1.7,0-3.1,0.6-4.2,1.9c-1.1,1.2-1.7,3-1.7,5.2c0,2.4,0.6,4.3,1.7,5.6
			c1.1,1.3,2.5,2,4.2,2c1.7,0,3.1-0.6,4.2-1.9c1.1-1.3,1.6-3.1,1.6-5.5c0-2.2-0.6-4-1.7-5.3C35.8,28,34.4,27.4,32.7,27.4z"/>
		<path fill="#2A694F" d="M63,10.4v38.8c0,0.5,0.2,0.9,0.5,1.2c0.5,0.4,1.1,0.6,1.7,0.6H68v2.1H52.9V51h2.7c0.9,0,1.5-0.2,2-0.6
			c0.4-0.4,0.6-1,0.6-1.8V16c0-1-0.3-1.6-0.8-2.1c-0.7-0.6-1.6-0.9-2.6-0.9h-2.4v-2.1L63,10.4z"/>
		<path fill="#2A694F" d="M85.7,25.5c3.6,0,6.6,1.3,9.1,3.9c2.4,2.6,3.7,6,3.7,10.3c0,2.9-0.5,5.4-1.6,7.5c-1.1,2.1-2.7,3.7-4.7,4.9
			c-2,1.2-4.2,1.8-6.6,1.8c-3.5,0-6.4-1.3-8.8-3.9c-2.4-2.6-3.6-6-3.6-10.2c0-4.2,1.2-7.6,3.6-10.3C79.2,26.9,82.1,25.5,85.7,25.5z
			 M85.7,27.6c-2.1,0-3.9,1-5.3,2.9c-1.4,1.9-2.1,5-2.1,9.2c0,4.2,0.7,7.4,2,9.3c1.4,2,3.1,2.9,5.3,2.9c2.2,0,4-1,5.4-2.9
			c1.4-2,2.1-5.2,2.1-9.6c0-4.1-0.7-7.1-2-9C89.8,28.5,88,27.6,85.7,27.6z"/>
		<path fill="#2A694F" d="M112.4,10.4v19.9c1.1-1.6,2.4-2.8,3.7-3.6c1.4-0.8,2.9-1.2,4.5-1.2c3.1,0,5.8,1.2,8,3.7
			c2.2,2.5,3.3,5.7,3.3,9.7c0,4.4-1.2,7.9-3.5,10.6c-2.3,2.7-5.2,4-8.7,4c-1.6,0-3.1-0.3-4.5-1c-1.3-0.6-2.7-1.7-4.1-3.3
			c-1.1,1.7-2.1,3.2-3.1,4.3l-1.1-0.4c0.5-2.2,0.8-4.5,0.8-6.9V16c0-0.9-0.3-1.7-1-2.2c-0.7-0.5-1.6-0.8-2.8-0.8h-1.2v-2.1
			L112.4,10.4z M119.6,28.1c-2.2,0-3.9,0.9-5.3,2.8c-1.4,1.9-2,5-2,9.3c0,4.1,0.7,7.1,2,8.8c1.3,1.8,3.1,2.7,5.2,2.7
			c1.9,0,3.5-0.9,4.7-2.6c1.5-2.2,2.2-5.4,2.2-9.4c0-4-0.7-7-2-8.8C123.2,29,121.5,28.1,119.6,28.1z"/>
		<path fill="#2A694F" d="M166.7,50.2l1,1.6c-1.4,1.4-2.9,2.1-4.6,2.1c-1.3,0-2.4-0.4-3.3-1.1c-0.9-0.7-1.7-1.9-2.3-3.7
			c-1.8,1.9-3.4,3.2-4.8,3.8c-1.4,0.6-3,1-4.9,1c-2.7,0-4.8-0.6-6.3-1.8c-1.4-1.2-2.1-2.7-2.1-4.5c0-2.8,1.6-5.1,4.9-6.9
			c3.3-1.8,7.6-3.1,13-3.7v-4.1c0-1.4-0.6-2.7-1.7-3.7c-1.2-1-2.6-1.5-4.4-1.5c-1.7,0-3.1,0.3-4.3,1c-0.9,0.5-1.3,1-1.3,1.5
			c0,0.3,0.2,0.7,0.7,1.3c0.6,0.8,0.8,1.4,0.8,2c0,0.9-0.3,1.6-0.8,2.1c-0.6,0.5-1.3,0.8-2.2,0.8c-1,0-1.7-0.3-2.4-1
			c-0.6-0.6-1-1.5-1-2.5c0-1.9,1.1-3.6,3.2-5.2c2.1-1.6,4.9-2.3,8.4-2.3c3.2,0,5.6,0.7,7.3,2.1c1.7,1.4,2.5,3.1,2.5,5.1v14.6
			c0,1.3,0.2,2.2,0.6,2.9c0.4,0.6,1,0.9,1.6,0.9C165.1,51.1,165.9,50.8,166.7,50.2z M157.3,38.9c-4.8,0.7-8.3,1.8-10.3,3.3
			c-1.5,1.1-2.3,2.8-2.3,4.9c0,1.5,0.4,2.6,1.2,3.4c0.8,0.8,1.8,1.2,3.1,1.2c2.2,0,4.2-0.9,5.8-2.6c1.6-1.7,2.5-3.8,2.5-6.4V38.9z"
			/>
		<path fill="#2A694F" d="M182.8,10.4v38.8c0,0.5,0.2,0.9,0.5,1.2c0.5,0.4,1.1,0.6,1.7,0.6h2.8v2.1h-15.2V51h2.7
			c0.9,0,1.5-0.2,2-0.6c0.4-0.4,0.6-1,0.6-1.8V16c0-1-0.3-1.6-0.8-2.1c-0.7-0.6-1.6-0.9-2.6-0.9h-2.4v-2.1L182.8,10.4z"/>
		<path fill="#2A694F" d="M193.8,26.5l10.9-0.7c0.4,1.7,0.7,3.5,0.8,5.2c1.1-1.8,2.6-3.2,4.3-4.2c1.8-1,3.7-1.5,5.9-1.5
			c3.4,0,6.2,1.2,8.4,3.7c2.1,2.5,3.2,5.9,3.2,10.4c0,3.1-0.5,5.8-1.5,8c-1,2.2-2.5,3.8-4.3,4.9c-1.8,1.1-4,1.7-6.4,1.7
			c-2,0-3.7-0.4-5.2-1.3c-1.5-0.9-2.9-2.3-4.3-4.3v9.6c0,1.3,0.1,2.1,0.3,2.4c0.2,0.4,0.5,0.6,1.1,0.8c0.5,0.2,1.6,0.3,3.1,0.3v2.7
			h-16.1v-2.7h0.9c1,0,1.7-0.1,2-0.3c0.3-0.2,0.6-0.5,0.8-0.9c0.1-0.3,0.2-1.1,0.2-2.3V32.6c0-1.2-0.1-2.1-0.3-2.5
			c-0.2-0.4-0.5-0.7-0.9-0.9c-0.4-0.2-1.3-0.3-2.7-0.4V26.5z M212.1,29.3c-1.8,0-3.4,0.9-4.7,2.7c-1.3,1.8-1.9,4.4-1.9,7.8
			c0,3.4,0.7,6,2,7.8c1.4,1.8,2.9,2.7,4.7,2.7c1.7,0,3.1-0.8,4.1-2.3c1.4-2,2.1-4.8,2.1-8.3c0-3.2-0.6-5.7-1.7-7.6
			C215.6,30.2,214,29.3,212.1,29.3z"/>
		<path fill="#2A694F" d="M265.4,49.8l1.2,2.1c-1.2,0.8-2.2,1.4-3.1,1.7c-0.9,0.3-1.9,0.5-3,0.5c-1.6,0-3-0.3-4-1
			c-1-0.7-1.9-2-2.8-3.9c-1.9,1.9-3.7,3.2-5.2,3.9c-1.5,0.7-3.3,1-5.2,1c-2.7,0-4.8-0.6-6.3-1.9c-1.5-1.2-2.3-2.8-2.3-4.7
			c0-2.9,1.4-5.2,4.2-6.9c2.2-1.4,7.1-2.7,14.7-4.1v-3.9c0-1.5-0.5-2.8-1.5-3.7c-1-1-2.4-1.4-4.1-1.4c-1.3,0-2.4,0.3-3.4,0.8
			c-0.7,0.4-1,0.7-1,1.1c0,0.2,0.1,0.5,0.4,0.9c0.5,0.9,0.8,1.7,0.8,2.5c0,1.1-0.4,1.9-1.1,2.6c-0.7,0.7-1.6,1-2.8,1
			c-1.3,0-2.3-0.4-3-1.1c-0.8-0.7-1.1-1.6-1.1-2.8c0-1.8,1-3.5,3-4.9c2.5-1.8,5.6-2.6,9.3-2.6c2.8,0,5.3,0.4,7.5,1.3
			c1.4,0.6,2.5,1.5,3.4,2.9c0.9,1.4,1.3,3.1,1.3,5.1v13.6c0,1,0.2,1.8,0.6,2.2c0.4,0.5,0.9,0.7,1.6,0.7
			C263.8,50.7,264.5,50.4,265.4,49.8z M253.5,38.9c-4.1,0.6-6.8,1.4-8.3,2.6c-1.4,1.2-2.2,2.7-2.2,4.6c0,1.3,0.3,2.4,1,3.1
			c0.7,0.7,1.6,1.1,2.8,1.1c1.9,0,3.5-0.7,4.7-2c1.2-1.4,1.9-3.2,1.9-5.5V38.9z"/>
		<path fill="#2A694F" d="M290.4,50.5v2.7h-18.7v-2.7h2.3c1,0,1.6-0.2,2.1-0.6c0.4-0.4,0.7-0.9,0.7-1.5V32.6c0-1.3-0.3-2.2-0.9-2.8
			c-0.6-0.6-1.4-0.9-2.4-0.9H272v-2.5l11.4-0.6v8.7c0.7-2.9,1.8-5.2,3.5-6.7c1.7-1.6,3.5-2.3,5.6-2.3c1.8,0,3.2,0.5,4.2,1.4
			c1,0.9,1.5,2.2,1.5,3.6c0,1.3-0.4,2.3-1.1,3.1c-0.7,0.8-1.6,1.2-2.6,1.2c-0.9,0-1.7-0.3-2.4-1c-0.7-0.7-1-1.6-1-2.6
			c0-0.6,0.2-1.2,0.5-1.9c0.2-0.4,0.2-0.6,0.2-0.8c0-0.3-0.1-0.5-0.2-0.6c-0.1-0.1-0.3-0.2-0.6-0.2c-0.7,0-1.4,0.4-2.2,1.2
			c-1.3,1.2-2.3,3.2-3.2,5.8c-0.9,2.6-1.3,5.3-1.3,7.9v5.8c0,0.7,0.2,1.2,0.5,1.5c0.4,0.4,0.9,0.5,1.5,0.5H290.4z"/>
		<path fill="#2A694F" d="M303,10.6l12.7-0.4v29.4l7.9-6.4c1.3-1,1.9-1.9,1.9-2.6c0-0.4-0.3-0.8-0.8-1.1c-0.5-0.3-1.3-0.5-2.5-0.5
			h-0.9v-2.6h15.6V29c-1.7,0.1-3,0.3-3.9,0.6c-1.3,0.5-2.5,1.2-3.6,2.2l-4.5,3.7l9.9,13.4c0.8,1,1.8,1.6,2.9,1.6h1.4v2.7h-16.8v-2.7
			h1.7c0.8,0,1.4-0.1,1.7-0.3c0.3-0.2,0.5-0.4,0.5-0.6c0-0.2-0.1-0.4-0.3-0.7l-6.4-8.9l-3.7,2.9v5.3c0,0.8,0.2,1.4,0.5,1.8
			c0.3,0.4,0.9,0.5,1.7,0.5h1.9v2.7h-16.4v-2.7h2c1,0,1.7-0.2,2.1-0.7c0.4-0.5,0.7-1.2,0.7-2.1V15.4c0-0.7-0.2-1.3-0.7-1.7
			c-0.5-0.4-1.1-0.6-1.9-0.6H303V10.6z"/>
	</g>
</g>
</svg>
