<?xml version="1.0" encoding="utf-8"?>
<!-- Generator: Adobe Illustrator 17.1.0, SVG Export Plug-In . SVG Version: 6.00 Build 0)  -->
<!DOCTYPE svg PUBLIC "-//W3C//DTD SVG 1.1//EN" "http://www.w3.org/Graphics/SVG/1.1/DTD/svg11.dtd">
<svg version="1.1" id="Capa_1" xmlns="http://www.w3.org/2000/svg" xmlns:xlink="http://www.w3.org/1999/xlink" x="0px" y="0px"
	 viewBox="0 0 341.8 68.4" enable-background="new 0 0 341.8 68.4" xml:space="preserve">
<g>
	<g>
		<g>
			<path fill="#446851" d="M38,56.1v-1.2h1v1.2H38z M38.9,57.2v5.9h-1v-5.9H38.9z"/>
			<path fill="#446851" d="M43.7,57.2V58h0c0.4-0.7,1.1-1,1.9-1c0.4,0,0.7,0.1,1,0.2c0.3,0.2,0.5,0.4,0.6,0.8
				c0.2-0.3,0.5-0.6,0.8-0.7c0.3-0.2,0.7-0.3,1.1-0.3c0.3,0,0.6,0,0.8,0.1c0.2,0.1,0.5,0.2,0.6,0.3c0.2,0.1,0.3,0.3,0.4,0.5
				c0.1,0.2,0.1,0.5,0.1,0.8v4.4h-1v-3.9c0-0.2,0-0.4,0-0.5c0-0.2-0.1-0.3-0.2-0.4c-0.1-0.1-0.2-0.2-0.4-0.3
				c-0.1-0.1-0.3-0.1-0.6-0.1c-0.5,0-0.9,0.1-1.1,0.4c-0.3,0.3-0.4,0.6-0.4,1.1v3.7h-1v-3.9c0-0.2,0-0.4-0.1-0.5
				c0-0.2-0.1-0.3-0.2-0.4C46.1,58.1,46,58,45.9,58c-0.1-0.1-0.3-0.1-0.5-0.1c-0.3,0-0.5,0.1-0.7,0.2c-0.2,0.1-0.4,0.3-0.5,0.4
				c-0.1,0.2-0.2,0.3-0.3,0.5c-0.1,0.2-0.1,0.3-0.1,0.4v3.7h-1v-5.9H43.7z"/>
			<path fill="#446851" d="M59.4,63.2c-0.3,0-0.5-0.1-0.6-0.2c-0.1-0.1-0.2-0.4-0.2-0.7c-0.3,0.3-0.6,0.6-0.9,0.7
				c-0.4,0.1-0.7,0.2-1.2,0.2c-0.3,0-0.5,0-0.8-0.1c-0.2-0.1-0.4-0.2-0.6-0.3c-0.2-0.1-0.3-0.3-0.4-0.5c-0.1-0.2-0.2-0.5-0.2-0.8
				c0-0.3,0.1-0.6,0.2-0.8c0.1-0.2,0.3-0.4,0.5-0.5c0.2-0.1,0.4-0.2,0.6-0.3c0.2-0.1,0.5-0.1,0.7-0.2c0.3-0.1,0.5-0.1,0.8-0.1
				c0.2,0,0.5-0.1,0.6-0.1c0.2-0.1,0.3-0.1,0.4-0.2c0.1-0.1,0.2-0.2,0.2-0.4c0-0.2,0-0.4-0.1-0.5c-0.1-0.1-0.2-0.2-0.3-0.3
				c-0.1-0.1-0.3-0.1-0.4-0.1c-0.2,0-0.3,0-0.5,0c-0.4,0-0.8,0.1-1,0.2c-0.3,0.2-0.4,0.5-0.4,0.9h-1c0-0.4,0.1-0.7,0.2-0.9
				c0.1-0.3,0.3-0.5,0.6-0.6c0.2-0.2,0.5-0.3,0.8-0.3c0.3-0.1,0.6-0.1,0.9-0.1c0.3,0,0.5,0,0.8,0.1c0.3,0,0.5,0.1,0.7,0.2
				c0.2,0.1,0.4,0.3,0.5,0.5c0.1,0.2,0.2,0.5,0.2,0.8v3.1c0,0.2,0,0.4,0,0.5c0,0.1,0.1,0.2,0.3,0.2c0.1,0,0.2,0,0.3-0.1v0.8
				C59.9,63.2,59.7,63.2,59.4,63.2z M58,60.2c-0.2,0-0.4,0.1-0.6,0.1c-0.2,0-0.4,0.1-0.7,0.1c-0.2,0-0.4,0.1-0.6,0.2
				c-0.2,0.1-0.3,0.2-0.4,0.3c-0.1,0.1-0.2,0.3-0.2,0.6c0,0.2,0,0.3,0.1,0.4c0.1,0.1,0.1,0.2,0.3,0.3c0.1,0.1,0.2,0.1,0.4,0.1
				c0.1,0,0.3,0,0.4,0c0.3,0,0.6,0,0.8-0.1c0.2-0.1,0.4-0.2,0.6-0.3c0.1-0.1,0.3-0.3,0.3-0.4c0.1-0.2,0.1-0.3,0.1-0.4v-1
				C58.4,60.1,58.2,60.2,58,60.2z"/>
			<path fill="#446851" d="M67.8,64.8c-0.4,0.5-1.1,0.7-2.1,0.7c-0.3,0-0.6,0-0.8-0.1c-0.3-0.1-0.5-0.2-0.8-0.3
				c-0.2-0.1-0.4-0.3-0.6-0.5c-0.2-0.2-0.2-0.5-0.3-0.8h1c0,0.2,0.1,0.3,0.2,0.4c0.1,0.1,0.2,0.2,0.4,0.3c0.2,0.1,0.3,0.1,0.5,0.2
				c0.2,0,0.4,0.1,0.5,0.1c0.3,0,0.6-0.1,0.8-0.2c0.2-0.1,0.4-0.3,0.5-0.5c0.1-0.2,0.3-0.4,0.3-0.7c0.1-0.3,0.1-0.6,0.1-0.9v-0.4h0
				c-0.2,0.4-0.4,0.6-0.8,0.8c-0.3,0.2-0.7,0.3-1.1,0.3c-0.4,0-0.8-0.1-1.2-0.2c-0.3-0.2-0.6-0.4-0.8-0.7c-0.2-0.3-0.4-0.6-0.5-1
				C63,60.9,63,60.6,63,60.2c0-0.4,0-0.7,0.1-1.1c0.1-0.4,0.2-0.7,0.5-1c0.2-0.3,0.5-0.6,0.9-0.7c0.3-0.2,0.8-0.3,1.3-0.3
				c0.4,0,0.7,0.1,1,0.2c0.3,0.2,0.6,0.4,0.7,0.7h0v-0.9h0.9v5.4C68.4,63.6,68.2,64.3,67.8,64.8z M66.5,62.1
				c0.2-0.1,0.4-0.3,0.6-0.5c0.1-0.2,0.2-0.5,0.3-0.7c0.1-0.3,0.1-0.6,0.1-0.8c0-0.3,0-0.5-0.1-0.8c-0.1-0.3-0.2-0.5-0.3-0.7
				c-0.1-0.2-0.3-0.4-0.5-0.5c-0.2-0.1-0.5-0.2-0.8-0.2c-0.3,0-0.6,0.1-0.8,0.2c-0.2,0.1-0.4,0.3-0.5,0.5c-0.1,0.2-0.2,0.4-0.3,0.7
				C64.1,59.5,64,59.8,64,60c0,0.3,0,0.5,0.1,0.8c0.1,0.3,0.1,0.5,0.3,0.7c0.1,0.2,0.3,0.4,0.5,0.5c0.2,0.1,0.5,0.2,0.8,0.2
				C66,62.3,66.3,62.2,66.5,62.1z"/>
			<path fill="#446851" d="M76.4,62.7c-0.4,0.3-1,0.5-1.7,0.5c-0.5,0-0.9-0.1-1.2-0.2c-0.3-0.2-0.6-0.4-0.9-0.6
				c-0.2-0.3-0.4-0.6-0.5-1c-0.1-0.4-0.2-0.8-0.2-1.3c0-0.5,0.1-0.9,0.2-1.2c0.1-0.4,0.3-0.7,0.6-1c0.2-0.3,0.5-0.5,0.9-0.6
				c0.3-0.2,0.7-0.2,1.1-0.2c0.5,0,1,0.1,1.3,0.3c0.4,0.2,0.6,0.5,0.8,0.8c0.2,0.3,0.4,0.7,0.4,1.1c0.1,0.4,0.1,0.8,0.1,1.1h-4.4
				c0,0.3,0,0.5,0.1,0.7c0.1,0.2,0.2,0.4,0.3,0.6c0.2,0.2,0.3,0.3,0.6,0.4c0.2,0.1,0.5,0.2,0.8,0.2c0.4,0,0.8-0.1,1-0.3
				c0.3-0.2,0.4-0.5,0.5-0.9h1C77.1,61.9,76.9,62.4,76.4,62.7z M76.2,58.9c-0.1-0.2-0.2-0.4-0.4-0.5c-0.1-0.2-0.3-0.3-0.5-0.4
				c-0.2-0.1-0.4-0.1-0.7-0.1c-0.3,0-0.5,0-0.7,0.1c-0.2,0.1-0.4,0.2-0.5,0.4c-0.1,0.1-0.3,0.3-0.3,0.5c-0.1,0.2-0.1,0.4-0.1,0.6
				h3.4C76.3,59.3,76.3,59.1,76.2,58.9z"/>
			<path fill="#446851" d="M81.6,57.2v0.9h0c0.4-0.7,1-1.1,1.9-1.1c0.4,0,0.7,0.1,1,0.2c0.3,0.1,0.5,0.3,0.6,0.5
				c0.2,0.2,0.3,0.4,0.3,0.7c0.1,0.3,0.1,0.6,0.1,0.9v3.9h-1v-4c0-0.4-0.1-0.7-0.3-0.9c-0.2-0.2-0.5-0.3-0.9-0.3
				c-0.3,0-0.6,0-0.8,0.1c-0.2,0.1-0.4,0.2-0.5,0.4c-0.1,0.2-0.3,0.4-0.3,0.6c-0.1,0.2-0.1,0.5-0.1,0.7v3.4h-1v-5.9H81.6z"/>
			<path fill="#446851" d="M98.4,58.2c-0.2-0.2-0.6-0.3-1-0.3c-0.4,0-0.6,0.1-0.9,0.2c-0.2,0.1-0.4,0.3-0.6,0.5
				c-0.1,0.2-0.2,0.5-0.3,0.7c-0.1,0.3-0.1,0.6-0.1,0.9c0,0.3,0,0.5,0.1,0.8c0.1,0.3,0.2,0.5,0.3,0.7c0.1,0.2,0.3,0.4,0.5,0.5
				c0.2,0.1,0.5,0.2,0.8,0.2c0.5,0,0.9-0.1,1.1-0.4c0.3-0.3,0.4-0.6,0.5-1.1h1c-0.1,0.7-0.4,1.3-0.8,1.7c-0.4,0.4-1,0.6-1.8,0.6
				c-0.5,0-0.9-0.1-1.2-0.2c-0.3-0.1-0.6-0.4-0.9-0.6c-0.2-0.3-0.4-0.6-0.5-1c-0.1-0.4-0.2-0.8-0.2-1.2c0-0.4,0.1-0.9,0.2-1.2
				c0.1-0.4,0.3-0.7,0.5-1c0.2-0.3,0.5-0.5,0.9-0.7c0.3-0.2,0.8-0.2,1.2-0.2c0.3,0,0.7,0,1,0.1c0.3,0.1,0.6,0.2,0.8,0.4
				c0.2,0.2,0.4,0.4,0.6,0.6c0.1,0.3,0.2,0.6,0.3,0.9h-1C98.8,58.7,98.6,58.4,98.4,58.2z"/>
			<path fill="#446851" d="M103.2,58.9c0.1-0.4,0.3-0.7,0.5-1c0.2-0.3,0.6-0.5,0.9-0.7c0.4-0.2,0.8-0.2,1.2-0.2
				c0.5,0,0.9,0.1,1.2,0.2c0.4,0.2,0.7,0.4,0.9,0.7c0.2,0.3,0.4,0.6,0.6,1c0.1,0.4,0.2,0.8,0.2,1.2c0,0.4-0.1,0.8-0.2,1.2
				c-0.1,0.4-0.3,0.7-0.6,1c-0.2,0.3-0.5,0.5-0.9,0.7c-0.4,0.2-0.8,0.2-1.2,0.2c-0.5,0-0.9-0.1-1.2-0.2c-0.4-0.2-0.7-0.4-0.9-0.7
				c-0.2-0.3-0.4-0.6-0.5-1c-0.1-0.4-0.2-0.8-0.2-1.2C103,59.7,103,59.3,103.2,58.9z M104.2,61.1c0.1,0.3,0.2,0.5,0.4,0.7
				c0.2,0.2,0.4,0.3,0.6,0.4c0.2,0.1,0.5,0.1,0.7,0.1c0.3,0,0.5,0,0.7-0.1c0.2-0.1,0.4-0.2,0.6-0.4c0.2-0.2,0.3-0.4,0.4-0.7
				c0.1-0.3,0.1-0.6,0.1-1c0-0.4-0.1-0.7-0.1-1c-0.1-0.3-0.2-0.5-0.4-0.7c-0.2-0.2-0.4-0.3-0.6-0.4c-0.2-0.1-0.5-0.1-0.7-0.1
				c-0.2,0-0.5,0-0.7,0.1c-0.2,0.1-0.4,0.2-0.6,0.4c-0.2,0.2-0.3,0.4-0.4,0.7c-0.1,0.3-0.1,0.6-0.1,1
				C104,60.5,104.1,60.8,104.2,61.1z"/>
			<path fill="#446851" d="M113.1,57.2v1.3h0c0.2-0.5,0.5-0.8,0.9-1.1c0.3-0.2,0.8-0.3,1.3-0.3v1c-0.4,0-0.7,0.1-1,0.2
				c-0.3,0.1-0.5,0.3-0.7,0.5c-0.2,0.2-0.3,0.5-0.4,0.8c-0.1,0.3-0.1,0.6-0.1,1v2.6h-1v-5.9H113.1z"/>
			<path fill="#446851" d="M119.3,57.2V58h0c0.2-0.3,0.4-0.6,0.8-0.7c0.3-0.1,0.7-0.2,1.1-0.2c0.5,0,0.9,0.1,1.2,0.3
				c0.3,0.2,0.6,0.4,0.8,0.7c0.2,0.3,0.4,0.6,0.5,1c0.1,0.4,0.2,0.8,0.2,1.2c0,0.4-0.1,0.8-0.2,1.2c-0.1,0.4-0.3,0.7-0.5,1
				c-0.2,0.3-0.5,0.5-0.9,0.7c-0.3,0.2-0.7,0.2-1.2,0.2c-0.1,0-0.3,0-0.5,0c-0.2,0-0.4-0.1-0.5-0.1c-0.2-0.1-0.3-0.2-0.5-0.3
				c-0.2-0.1-0.3-0.3-0.4-0.4h0v3.1h-1v-8.2H119.3z M122.8,59.3c-0.1-0.3-0.2-0.5-0.3-0.7c-0.2-0.2-0.3-0.4-0.6-0.5
				c-0.2-0.1-0.5-0.2-0.8-0.2c-0.3,0-0.6,0.1-0.8,0.2c-0.2,0.1-0.4,0.3-0.6,0.5c-0.1,0.2-0.3,0.5-0.3,0.7c-0.1,0.3-0.1,0.5-0.1,0.8
				c0,0.3,0,0.6,0.1,0.8c0.1,0.3,0.2,0.5,0.3,0.7c0.2,0.2,0.3,0.4,0.6,0.5c0.2,0.1,0.5,0.2,0.9,0.2c0.3,0,0.6-0.1,0.8-0.2
				c0.2-0.1,0.4-0.3,0.5-0.5c0.1-0.2,0.2-0.5,0.3-0.7c0.1-0.3,0.1-0.6,0.1-0.9C122.9,59.8,122.9,59.5,122.8,59.3z"/>
			<path fill="#446851" d="M127.3,58.9c0.1-0.4,0.3-0.7,0.6-1c0.2-0.3,0.5-0.5,0.9-0.7c0.4-0.2,0.8-0.2,1.2-0.2
				c0.5,0,0.9,0.1,1.2,0.2c0.4,0.2,0.7,0.4,0.9,0.7c0.2,0.3,0.4,0.6,0.6,1c0.1,0.4,0.2,0.8,0.2,1.2c0,0.4-0.1,0.8-0.2,1.2
				c-0.1,0.4-0.3,0.7-0.6,1c-0.2,0.3-0.5,0.5-0.9,0.7c-0.4,0.2-0.8,0.2-1.2,0.2c-0.5,0-0.9-0.1-1.2-0.2c-0.4-0.2-0.7-0.4-0.9-0.7
				c-0.2-0.3-0.4-0.6-0.6-1c-0.1-0.4-0.2-0.8-0.2-1.2C127.1,59.7,127.2,59.3,127.3,58.9z M128.3,61.1c0.1,0.3,0.2,0.5,0.4,0.7
				c0.2,0.2,0.4,0.3,0.6,0.4c0.2,0.1,0.5,0.1,0.7,0.1c0.3,0,0.5,0,0.7-0.1c0.2-0.1,0.4-0.2,0.6-0.4c0.2-0.2,0.3-0.4,0.4-0.7
				c0.1-0.3,0.1-0.6,0.1-1c0-0.4-0.1-0.7-0.1-1c-0.1-0.3-0.2-0.5-0.4-0.7c-0.2-0.2-0.4-0.3-0.6-0.4c-0.2-0.1-0.5-0.1-0.7-0.1
				c-0.2,0-0.5,0-0.7,0.1c-0.2,0.1-0.4,0.2-0.6,0.4c-0.2,0.2-0.3,0.4-0.4,0.7c-0.1,0.3-0.1,0.6-0.1,1
				C128.1,60.5,128.2,60.8,128.3,61.1z"/>
			<path fill="#446851" d="M137.2,57.2v1.3h0c0.2-0.5,0.5-0.8,0.9-1.1c0.3-0.2,0.8-0.3,1.3-0.3v1c-0.4,0-0.7,0.1-1,0.2
				c-0.3,0.1-0.5,0.3-0.7,0.5c-0.2,0.2-0.3,0.5-0.4,0.8c-0.1,0.3-0.1,0.6-0.1,1v2.6h-1v-5.9H137.2z"/>
			<path fill="#446851" d="M147,63.2c-0.3,0-0.5-0.1-0.6-0.2c-0.1-0.1-0.2-0.4-0.2-0.7c-0.3,0.3-0.6,0.6-0.9,0.7
				c-0.4,0.1-0.7,0.2-1.2,0.2c-0.3,0-0.5,0-0.8-0.1c-0.2-0.1-0.5-0.2-0.6-0.3c-0.2-0.1-0.3-0.3-0.4-0.5c-0.1-0.2-0.2-0.5-0.2-0.8
				c0-0.3,0.1-0.6,0.2-0.8c0.1-0.2,0.3-0.4,0.5-0.5c0.2-0.1,0.4-0.2,0.6-0.3c0.2-0.1,0.5-0.1,0.7-0.2c0.3-0.1,0.5-0.1,0.8-0.1
				c0.2,0,0.5-0.1,0.6-0.1c0.2-0.1,0.3-0.1,0.4-0.2c0.1-0.1,0.2-0.2,0.2-0.4c0-0.2,0-0.4-0.1-0.5c-0.1-0.1-0.2-0.2-0.3-0.3
				c-0.1-0.1-0.3-0.1-0.4-0.1c-0.2,0-0.3,0-0.5,0c-0.4,0-0.8,0.1-1,0.2c-0.3,0.2-0.4,0.5-0.4,0.9h-1c0-0.4,0.1-0.7,0.2-0.9
				c0.1-0.3,0.3-0.5,0.6-0.6c0.2-0.2,0.5-0.3,0.8-0.3c0.3-0.1,0.6-0.1,0.9-0.1c0.3,0,0.5,0,0.8,0.1c0.3,0,0.5,0.1,0.7,0.2
				c0.2,0.1,0.4,0.3,0.5,0.5c0.1,0.2,0.2,0.5,0.2,0.8v3.1c0,0.2,0,0.4,0,0.5c0,0.1,0.1,0.2,0.3,0.2c0.1,0,0.2,0,0.3-0.1v0.8
				C147.5,63.2,147.3,63.2,147,63.2z M145.6,60.2c-0.2,0-0.4,0.1-0.6,0.1c-0.2,0-0.4,0.1-0.7,0.1c-0.2,0-0.4,0.1-0.6,0.2
				c-0.2,0.1-0.3,0.2-0.4,0.3c-0.1,0.1-0.2,0.3-0.2,0.6c0,0.2,0,0.3,0.1,0.4c0.1,0.1,0.1,0.2,0.3,0.3c0.1,0.1,0.2,0.1,0.4,0.1
				c0.1,0,0.3,0,0.4,0c0.3,0,0.6,0,0.8-0.1c0.2-0.1,0.4-0.2,0.6-0.3c0.1-0.1,0.3-0.3,0.3-0.4c0.1-0.2,0.1-0.3,0.1-0.4v-1
				C146,60.1,145.8,60.2,145.6,60.2z"/>
			<path fill="#446851" d="M153.4,57.2V58h-1.2v3.7c0,0.1,0,0.2,0,0.3c0,0.1,0.1,0.1,0.1,0.2c0.1,0,0.1,0.1,0.2,0.1
				c0.1,0,0.2,0,0.4,0h0.4v0.9h-0.7c-0.3,0-0.5,0-0.6-0.1c-0.2,0-0.3-0.1-0.4-0.2c-0.1-0.1-0.2-0.2-0.2-0.4
				c-0.1-0.2-0.1-0.4-0.1-0.7V58h-1v-0.9h1v-1.8h1v1.8H153.4z"/>
			<path fill="#446851" d="M156.9,56.1v-1.2h1v1.2H156.9z M157.9,57.2v5.9h-1v-5.9H157.9z"/>
			<path fill="#446851" d="M163.3,63.1l-2.2-5.9h1.1l1.7,4.9h0l1.6-4.9h1l-2.2,5.9H163.3z"/>
			<path fill="#446851" d="M174.3,63.2c-0.3,0-0.5-0.1-0.6-0.2c-0.1-0.1-0.2-0.4-0.2-0.7c-0.3,0.3-0.6,0.6-0.9,0.7
				c-0.4,0.1-0.7,0.2-1.2,0.2c-0.3,0-0.5,0-0.8-0.1c-0.2-0.1-0.4-0.2-0.6-0.3c-0.2-0.1-0.3-0.3-0.4-0.5c-0.1-0.2-0.2-0.5-0.2-0.8
				c0-0.3,0.1-0.6,0.2-0.8c0.1-0.2,0.3-0.4,0.5-0.5c0.2-0.1,0.4-0.2,0.6-0.3c0.2-0.1,0.5-0.1,0.7-0.2c0.3-0.1,0.5-0.1,0.8-0.1
				c0.2,0,0.5-0.1,0.6-0.1c0.2-0.1,0.3-0.1,0.4-0.2c0.1-0.1,0.2-0.2,0.2-0.4c0-0.2,0-0.4-0.1-0.5c-0.1-0.1-0.2-0.2-0.3-0.3
				c-0.1-0.1-0.3-0.1-0.4-0.1c-0.2,0-0.3,0-0.5,0c-0.4,0-0.8,0.1-1,0.2c-0.3,0.2-0.4,0.5-0.4,0.9h-1c0-0.4,0.1-0.7,0.2-0.9
				c0.1-0.3,0.3-0.5,0.5-0.6c0.2-0.2,0.5-0.3,0.8-0.3c0.3-0.1,0.6-0.1,0.9-0.1c0.3,0,0.5,0,0.8,0.1c0.3,0,0.5,0.1,0.7,0.2
				c0.2,0.1,0.4,0.3,0.5,0.5c0.1,0.2,0.2,0.5,0.2,0.8v3.1c0,0.2,0,0.4,0,0.5c0,0.1,0.1,0.2,0.3,0.2c0.1,0,0.2,0,0.3-0.1v0.8
				C174.8,63.2,174.6,63.2,174.3,63.2z M172.9,60.2c-0.2,0-0.4,0.1-0.6,0.1c-0.2,0-0.4,0.1-0.7,0.1c-0.2,0-0.4,0.1-0.6,0.2
				c-0.2,0.1-0.3,0.2-0.4,0.3c-0.1,0.1-0.2,0.3-0.2,0.6c0,0.2,0,0.3,0.1,0.4c0.1,0.1,0.1,0.2,0.2,0.3c0.1,0.1,0.2,0.1,0.4,0.1
				c0.1,0,0.3,0,0.4,0c0.3,0,0.6,0,0.8-0.1c0.2-0.1,0.4-0.2,0.6-0.3c0.1-0.1,0.2-0.3,0.3-0.4c0.1-0.2,0.1-0.3,0.1-0.4v-1
				C173.3,60.1,173.1,60.2,172.9,60.2z"/>
		</g>
		<g>
			<path fill="#446851" d="M25,21.3c2-2,3.8-3,5.5-3c1,0,1.8,0.3,2.5,1c0.7,0.6,1,1.4,1,2.3c0,0.7-0.2,1.3-0.7,1.8
				c-0.4,0.5-1,0.7-1.6,0.7c-1.1,0-1.9-0.7-2.3-2.1c-0.2-0.6-0.4-0.9-0.8-0.9c-0.7,0-1.4,0.4-2.2,1.3c0.9,1.2,1.4,2.2,1.8,3.1
				c0.3,0.9,0.5,1.8,0.5,2.8c0,1.7-0.4,3.3-1.3,4.6c-0.8,1.3-2.2,2.5-4.2,3.5c-1.9,1-3.8,1.5-5.6,1.5h-3.3c-2.3,0-3.8,0.2-4.6,0.7
				c-0.8,0.5-1.1,1.2-1.1,2.2c0,0.8,0.3,1.4,0.9,1.8c0.6,0.4,1.8,0.6,3.5,0.6l7.4-0.2c3.7,0,6.4,0.6,8,1.9c1.6,1.2,2.5,3,2.5,5.1
				c0,2.4-0.9,4.4-2.8,6c-2.6,2.3-6.5,3.5-11.7,3.5c-4.3,0-7.5-0.8-9.5-2.4c-1.6-1.2-2.4-2.6-2.4-4.2c0-1.2,0.5-2.3,1.6-3.2
				c1-1,2.8-1.7,5.3-2.2c-2-0.5-3.5-1.2-4.4-2.1c-1-0.9-1.5-2.1-1.5-3.5c0-1.3,0.4-2.4,1.2-3.3c0.8-0.9,2.2-1.8,4.2-2.4
				c-1.7-0.9-3-2.1-3.8-3.4c-0.9-1.3-1.3-2.8-1.3-4.6c0-2.7,1.1-5,3.2-6.8c2.1-1.8,4.9-2.7,8.3-2.7c1.4,0,2.7,0.2,4,0.6
				C22.6,19.9,23.8,20.5,25,21.3z M18.9,47.7c-3.7,0-6.3,0.5-7.8,1.5c-1.6,1-2.3,2.2-2.3,3.7c0,1.4,0.6,2.4,1.8,3.2
				c1.6,1,3.8,1.6,6.6,1.6c3.4,0,6-0.6,7.7-1.7c1.7-1.1,2.6-2.4,2.6-3.8c0-0.8-0.3-1.6-0.8-2.3c-0.5-0.7-1.4-1.2-2.6-1.6
				C22.9,47.9,21.2,47.7,18.9,47.7z M17.2,20.8c-1.8,0-3.2,0.7-4.4,2c-1.2,1.3-1.7,3.1-1.7,5.5c0,2.5,0.6,4.5,1.7,5.8
				c1.2,1.4,2.6,2.1,4.4,2.1c1.8,0,3.3-0.7,4.4-2c1.1-1.3,1.7-3.3,1.7-5.8c0-2.3-0.6-4.2-1.8-5.5C20.4,21.5,18.9,20.8,17.2,20.8z"/>
			<path fill="#446851" d="M48.8,3v40.6c0,0.6,0.2,1,0.5,1.3c0.5,0.4,1.1,0.6,1.8,0.6h3v2.2H38.3v-2.2h2.8c0.9,0,1.6-0.2,2-0.7
				c0.4-0.4,0.7-1.1,0.7-1.9v-34c0-1-0.3-1.7-0.8-2.2c-0.7-0.6-1.6-1-2.7-1h-2.5V3.5L48.8,3z"/>
			<path fill="#446851" d="M72.6,18.9c3.8,0,6.6,1.7,9.5,4.1c2.9,2.5,4.6,5.8,3.8,10.7c-0.5,3-0.6,5.7-1.7,7.8
				c-1.1,2.2-2.8,3.9-4.9,5.1c-2.1,1.3-4.4,1.9-6.9,1.9c-3.6,0-6.7-1.4-9.2-4.1c-2.5-2.7-3.8-6.3-3.8-10.7c0-4.4,1.3-8,3.8-10.7
				C65.8,20.3,68.9,18.9,72.6,18.9z M72.6,21c-2.2,0-4.1,1-5.5,3c-1.4,2-2.1,5.2-2.1,9.6c0,4.4,0.7,7.7,2.1,9.7
				c1.4,2,3.3,3.1,5.5,3.1c2.3,0,4.2-1,5.7-3.1c1.4-2,2.2-5.4,2.2-10.1c0-4.3-0.7-7.4-2.1-9.4C76.8,22,74.9,21,72.6,21z"/>
			<path fill="#446851" d="M100.4,3v20.8c1.2-1.7,2.5-2.9,3.9-3.7c1.4-0.8,3-1.2,4.7-1.2c3.3,0,6.1,1.3,8.3,3.9
				c2.3,2.6,3.4,6,3.4,10.2c0,4.6-1.2,8.2-3.7,11c-2.4,2.8-5.5,4.2-9.1,4.2c-1.7,0-3.3-0.3-4.7-1c-1.4-0.7-2.8-1.8-4.3-3.4
				c-1.1,1.8-2.2,3.3-3.3,4.4l-1.2-0.4c0.6-2.3,0.8-4.7,0.8-7.2V8.9c0-1-0.3-1.7-1-2.3c-0.7-0.6-1.7-0.8-2.9-0.8h-1.2V3.5L100.4,3z
				 M108,21.5c-2.2,0-4.1,1-5.5,2.9c-1.4,2-2.1,5.2-2.1,9.7c0,4.3,0.7,7.4,2.1,9.2c1.4,1.8,3.2,2.8,5.5,2.8c2,0,3.7-0.9,4.9-2.7
				c1.6-2.3,2.3-5.6,2.3-9.9c0-4.2-0.7-7.3-2-9.2C111.7,22.5,110,21.5,108,21.5z"/>
			<path fill="#446851" d="M157.2,44.6l1.1,1.7c-1.5,1.5-3.1,2.2-4.8,2.2c-1.3,0-2.5-0.4-3.4-1.1c-0.9-0.7-1.7-2-2.4-3.9
				c-1.9,2-3.6,3.3-5,4c-1.4,0.7-3.2,1-5.2,1c-2.9,0-5-0.6-6.5-1.9c-1.5-1.2-2.2-2.8-2.2-4.7c0-2.9,1.7-5.3,5.1-7.2
				c3.4-1.9,8-3.2,13.6-3.8v-4.2c0-1.5-0.6-2.8-1.8-3.9c-1.2-1.1-2.8-1.6-4.6-1.6c-1.7,0-3.2,0.4-4.5,1.1c-0.9,0.5-1.3,1.1-1.3,1.6
				c0,0.3,0.2,0.8,0.7,1.4c0.6,0.8,0.9,1.5,0.9,2.1c0,0.9-0.3,1.6-0.9,2.2c-0.6,0.6-1.3,0.9-2.3,0.9c-1,0-1.8-0.3-2.5-1
				c-0.7-0.7-1-1.5-1-2.6c0-2,1.1-3.8,3.3-5.4c2.2-1.6,5.1-2.4,8.7-2.4c3.3,0,5.9,0.7,7.6,2.2c1.8,1.5,2.6,3.2,2.6,5.3v15.3
				c0,1.4,0.2,2.3,0.7,3c0.4,0.7,1,1,1.7,1C155.5,45.6,156.3,45.3,157.2,44.6z M147.4,32.8c-5.1,0.7-8.6,1.8-10.7,3.4
				c-1.6,1.2-2.4,2.9-2.4,5.1c0,1.5,0.4,2.7,1.2,3.6c0.8,0.9,1.9,1.3,3.2,1.3c2.3,0,4.4-0.9,6.1-2.7c1.7-1.8,2.6-4,2.6-6.7V32.8z"/>
			<path fill="#446851" d="M174,3v40.6c0,0.6,0.2,1,0.5,1.3c0.5,0.4,1.1,0.6,1.8,0.6h3v2.2h-15.9v-2.2h2.8c0.9,0,1.6-0.2,2-0.7
				c0.5-0.4,0.7-1.1,0.7-1.9v-34c0-1-0.3-1.7-0.8-2.2c-0.7-0.6-1.6-1-2.7-1H163V3.5L174,3z"/>
			<path fill="#446851" d="M185.5,19.9l11.4-0.7c0.5,1.8,0.7,3.6,0.8,5.4c1.2-1.9,2.7-3.3,4.5-4.4c1.8-1,3.9-1.6,6.1-1.6
				c3.6,0,6.5,1.3,8.7,3.9c2.2,2.6,3.3,6.2,3.3,10.9c0,3.3-0.5,6-1.6,8.3c-1.1,2.3-2.6,4-4.5,5.1c-1.9,1.2-4.2,1.7-6.7,1.7
				c-2.1,0-3.9-0.5-5.5-1.4c-1.6-0.9-3.1-2.4-4.5-4.5v10c0,1.3,0.1,2.2,0.3,2.5c0.2,0.4,0.6,0.6,1.1,0.8c0.5,0.2,1.6,0.3,3.3,0.3
				v2.9h-16.9v-2.9h0.9c1.1,0,1.8-0.1,2.1-0.3c0.4-0.2,0.6-0.5,0.8-1c0.1-0.3,0.2-1.1,0.2-2.4V26.3c0-1.3-0.1-2.2-0.3-2.6
				c-0.2-0.4-0.5-0.7-0.9-0.9c-0.4-0.2-1.4-0.3-2.9-0.4V19.9z M204.6,22.8c-1.9,0-3.6,0.9-4.9,2.8c-1.4,1.9-2,4.6-2,8.1
				c0,3.5,0.7,6.2,2.1,8.1c1.4,1.9,3.1,2.8,4.9,2.8c1.8,0,3.2-0.8,4.3-2.4c1.4-2.1,2.2-5,2.2-8.6c0-3.3-0.6-5.9-1.7-7.9
				C208.3,23.8,206.7,22.8,204.6,22.8z"/>
			<path fill="#446851" d="M260.3,44.2l1.3,2.2c-1.2,0.8-2.3,1.4-3.3,1.7c-1,0.3-2,0.5-3.2,0.5c-1.7,0-3.1-0.4-4.1-1.1
				c-1.1-0.7-2-2.1-2.9-4.1c-2,2-3.9,3.4-5.5,4.1c-1.6,0.7-3.4,1.1-5.5,1.1c-2.8,0-5-0.6-6.6-1.9c-1.6-1.3-2.4-2.9-2.4-4.9
				c0-3,1.5-5.4,4.4-7.2c2.3-1.4,7.4-2.9,15.3-4.3v-4c0-1.6-0.5-2.9-1.6-3.9c-1.1-1-2.5-1.5-4.2-1.5c-1.4,0-2.5,0.3-3.6,0.9
				c-0.7,0.4-1,0.8-1,1.1c0,0.2,0.1,0.5,0.4,0.9c0.6,0.9,0.8,1.8,0.8,2.7c0,1.1-0.4,2-1.1,2.7c-0.7,0.7-1.7,1-3,1
				c-1.3,0-2.4-0.4-3.2-1.1c-0.8-0.7-1.2-1.7-1.2-2.9c0-1.9,1-3.6,3.1-5.1c2.6-1.8,5.8-2.7,9.7-2.7c2.9,0,5.5,0.5,7.8,1.4
				c1.5,0.6,2.6,1.6,3.5,3c0.9,1.4,1.4,3.2,1.4,5.3v14.2c0,1.1,0.2,1.9,0.6,2.3c0.4,0.5,0.9,0.7,1.6,0.7
				C258.6,45.2,259.4,44.9,260.3,44.2z M247.9,32.8c-4.3,0.6-7.1,1.5-8.6,2.7c-1.5,1.2-2.3,2.8-2.3,4.8c0,1.4,0.4,2.5,1.1,3.2
				c0.7,0.7,1.7,1.1,3,1.1c2,0,3.6-0.7,4.9-2.1c1.3-1.4,2-3.3,2-5.8V32.8z"/>
			<path fill="#446851" d="M286.5,44.9v2.8H267v-2.8h2.4c1,0,1.7-0.2,2.2-0.6c0.5-0.4,0.7-0.9,0.7-1.6V26.2c0-1.3-0.3-2.3-0.9-2.9
				c-0.6-0.6-1.5-0.9-2.6-0.9h-1.6v-2.6l11.9-0.6v9.1c0.7-3,1.9-5.4,3.6-7c1.7-1.6,3.7-2.5,5.9-2.5c1.8,0,3.3,0.5,4.4,1.5
				c1.1,1,1.6,2.3,1.6,3.8c0,1.3-0.4,2.4-1.1,3.2c-0.8,0.8-1.7,1.2-2.7,1.2c-1,0-1.8-0.4-2.5-1.1c-0.7-0.7-1-1.6-1-2.7
				c0-0.6,0.2-1.3,0.5-1.9c0.2-0.4,0.3-0.6,0.3-0.8c0-0.3-0.1-0.5-0.2-0.6c-0.1-0.1-0.3-0.2-0.6-0.2c-0.7,0-1.5,0.4-2.4,1.3
				c-1.3,1.3-2.4,3.3-3.3,6.1c-0.9,2.7-1.3,5.5-1.3,8.3v6c0,0.7,0.2,1.2,0.6,1.6c0.4,0.4,0.9,0.6,1.6,0.6H286.5z"/>
			<path fill="#446851" d="M299.7,3.3l13.2-0.4v30.7l8.3-6.7c1.3-1.1,2-2,2-2.7c0-0.5-0.3-0.9-0.8-1.2c-0.5-0.3-1.4-0.5-2.6-0.5h-1
				v-2.7h16.3v2.7c-1.7,0.1-3.1,0.3-4.1,0.6c-1.3,0.5-2.6,1.3-3.8,2.3l-4.7,3.9l10.3,14c0.8,1.1,1.8,1.6,3,1.6h1.5v2.8h-17.6v-2.8
				h1.7c0.8,0,1.4-0.1,1.8-0.3c0.3-0.2,0.5-0.4,0.5-0.6c0-0.2-0.1-0.5-0.3-0.7l-6.7-9.3l-3.8,3v5.6c0,0.9,0.2,1.5,0.5,1.9
				c0.4,0.4,0.9,0.6,1.8,0.6h1.9v2.8H300v-2.8h2.1c1,0,1.8-0.2,2.2-0.7c0.5-0.5,0.7-1.2,0.7-2.2V8.3c0-0.8-0.2-1.3-0.7-1.7
				c-0.5-0.4-1.1-0.6-2-0.6h-2.7V3.3z"/>
		</g>
	</g>
</g>
</svg>
