<?xml version="1.0" encoding="utf-8"?>
<!-- Generator: Adobe Illustrator 17.1.0, SVG Export Plug-In . SVG Version: 6.00 Build 0)  -->
<!DOCTYPE svg PUBLIC "-//W3C//DTD SVG 1.1//EN" "http://www.w3.org/Graphics/SVG/1.1/DTD/svg11.dtd">
<svg version="1.1" id="Capa_1" xmlns="http://www.w3.org/2000/svg" xmlns:xlink="http://www.w3.org/1999/xlink" x="0px" y="0px"
	 viewBox="0 0 170.2 35.5" enable-background="new 0 0 170.2 35.5" xml:space="preserve">
<g>
	<g>
		<path fill="#5B5B5B" d="M19.8,28.5v-0.6h0.5v0.6H19.8z M20.3,29V32h-0.5V29H20.3z"/>
		<path fill="#5B5B5B" d="M22.6,29v0.4h0c0.2-0.3,0.5-0.5,0.9-0.5c0.2,0,0.3,0,0.5,0.1c0.1,0.1,0.3,0.2,0.3,0.4
			c0.1-0.2,0.2-0.3,0.4-0.4c0.2-0.1,0.3-0.1,0.5-0.1c0.1,0,0.3,0,0.4,0c0.1,0,0.2,0.1,0.3,0.1c0.1,0.1,0.1,0.2,0.2,0.3
			c0,0.1,0.1,0.2,0.1,0.4V32h-0.5V30c0-0.1,0-0.2,0-0.3c0-0.1,0-0.1-0.1-0.2c0-0.1-0.1-0.1-0.2-0.1c-0.1,0-0.2-0.1-0.3-0.1
			c-0.2,0-0.4,0.1-0.6,0.2c-0.1,0.1-0.2,0.3-0.2,0.5V32H24V30c0-0.1,0-0.2,0-0.3c0-0.1,0-0.1-0.1-0.2c0-0.1-0.1-0.1-0.2-0.1
			c-0.1,0-0.2,0-0.3,0c-0.1,0-0.3,0-0.4,0.1c-0.1,0.1-0.2,0.1-0.2,0.2c-0.1,0.1-0.1,0.2-0.1,0.2c0,0.1,0,0.2,0,0.2V32h-0.5V29H22.6z
			"/>
		<path fill="#5B5B5B" d="M30.3,32c-0.1,0-0.2,0-0.3-0.1c-0.1-0.1-0.1-0.2-0.1-0.3c-0.1,0.2-0.3,0.3-0.5,0.3
			C29.3,32,29.1,32,28.9,32c-0.1,0-0.3,0-0.4,0c-0.1,0-0.2-0.1-0.3-0.1c-0.1-0.1-0.2-0.2-0.2-0.3c-0.1-0.1-0.1-0.2-0.1-0.4
			c0-0.2,0-0.3,0.1-0.4c0.1-0.1,0.1-0.2,0.2-0.3c0.1-0.1,0.2-0.1,0.3-0.2c0.1,0,0.2-0.1,0.4-0.1c0.1,0,0.3,0,0.4-0.1
			c0.1,0,0.2,0,0.3-0.1c0.1,0,0.2-0.1,0.2-0.1c0.1,0,0.1-0.1,0.1-0.2c0-0.1,0-0.2-0.1-0.3c0-0.1-0.1-0.1-0.2-0.1
			c-0.1,0-0.1-0.1-0.2-0.1c-0.1,0-0.2,0-0.2,0c-0.2,0-0.4,0-0.5,0.1c-0.1,0.1-0.2,0.2-0.2,0.4H28c0-0.2,0-0.3,0.1-0.5
			c0.1-0.1,0.2-0.2,0.3-0.3c0.1-0.1,0.2-0.1,0.4-0.2c0.1,0,0.3-0.1,0.5-0.1c0.1,0,0.3,0,0.4,0c0.1,0,0.2,0.1,0.4,0.1
			c0.1,0.1,0.2,0.1,0.3,0.2c0.1,0.1,0.1,0.2,0.1,0.4v1.5c0,0.1,0,0.2,0,0.2c0,0.1,0.1,0.1,0.1,0.1c0,0,0.1,0,0.1,0v0.4
			C30.6,32,30.5,32,30.3,32z M29.7,30.5c-0.1,0-0.2,0-0.3,0.1c-0.1,0-0.2,0-0.3,0c-0.1,0-0.2,0-0.3,0.1c-0.1,0-0.2,0.1-0.2,0.2
			c-0.1,0.1-0.1,0.2-0.1,0.3c0,0.1,0,0.1,0,0.2c0,0.1,0.1,0.1,0.1,0.1c0.1,0,0.1,0.1,0.2,0.1c0.1,0,0.1,0,0.2,0c0.2,0,0.3,0,0.4-0.1
			c0.1,0,0.2-0.1,0.3-0.2c0.1-0.1,0.1-0.1,0.2-0.2c0-0.1,0.1-0.1,0.1-0.2v-0.5C29.8,30.5,29.8,30.5,29.7,30.5z"/>
		<path fill="#5B5B5B" d="M34.4,32.8c-0.2,0.2-0.6,0.4-1,0.4c-0.1,0-0.3,0-0.4,0c-0.1,0-0.3-0.1-0.4-0.1c-0.1-0.1-0.2-0.2-0.3-0.3
			c-0.1-0.1-0.1-0.2-0.1-0.4h0.5c0,0.1,0,0.2,0.1,0.2c0,0.1,0.1,0.1,0.2,0.1c0.1,0,0.2,0.1,0.2,0.1c0.1,0,0.2,0,0.2,0
			c0.2,0,0.3,0,0.4-0.1c0.1-0.1,0.2-0.1,0.3-0.2c0.1-0.1,0.1-0.2,0.2-0.3c0-0.1,0-0.3,0-0.4v-0.2h0c-0.1,0.2-0.2,0.3-0.4,0.4
			c-0.2,0.1-0.3,0.1-0.5,0.1c-0.2,0-0.4,0-0.6-0.1c-0.2-0.1-0.3-0.2-0.4-0.3c-0.1-0.1-0.2-0.3-0.2-0.5c-0.1-0.2-0.1-0.4-0.1-0.6
			c0-0.2,0-0.3,0.1-0.5c0-0.2,0.1-0.3,0.2-0.5c0.1-0.1,0.2-0.3,0.4-0.4C33,29,33.2,29,33.4,29c0.2,0,0.4,0,0.5,0.1
			c0.2,0.1,0.3,0.2,0.4,0.4h0V29h0.5v2.7C34.8,32.2,34.7,32.5,34.4,32.8z M33.8,31.5c0.1-0.1,0.2-0.2,0.3-0.3
			c0.1-0.1,0.1-0.2,0.1-0.4c0-0.1,0-0.3,0-0.4c0-0.1,0-0.3,0-0.4c0-0.1-0.1-0.2-0.1-0.3c-0.1-0.1-0.2-0.2-0.3-0.2
			c-0.1-0.1-0.2-0.1-0.4-0.1c-0.2,0-0.3,0-0.4,0.1c-0.1,0.1-0.2,0.1-0.3,0.2c-0.1,0.1-0.1,0.2-0.2,0.3c0,0.1,0,0.3,0,0.4
			c0,0.1,0,0.3,0,0.4c0,0.1,0.1,0.2,0.1,0.4c0.1,0.1,0.1,0.2,0.3,0.3c0.1,0.1,0.2,0.1,0.4,0.1C33.6,31.6,33.7,31.5,33.8,31.5z"/>
		<path fill="#5B5B5B" d="M38.7,31.8c-0.2,0.2-0.5,0.2-0.8,0.2c-0.2,0-0.4,0-0.6-0.1c-0.2-0.1-0.3-0.2-0.4-0.3
			c-0.1-0.1-0.2-0.3-0.3-0.5c-0.1-0.2-0.1-0.4-0.1-0.6c0-0.2,0-0.4,0.1-0.6c0.1-0.2,0.2-0.3,0.3-0.5c0.1-0.1,0.3-0.2,0.4-0.3
			c0.2-0.1,0.4-0.1,0.6-0.1c0.3,0,0.5,0.1,0.6,0.2c0.2,0.1,0.3,0.2,0.4,0.4c0.1,0.2,0.2,0.3,0.2,0.5c0,0.2,0.1,0.4,0,0.6H37
			c0,0.1,0,0.2,0,0.4c0,0.1,0.1,0.2,0.2,0.3c0.1,0.1,0.2,0.2,0.3,0.2c0.1,0.1,0.3,0.1,0.4,0.1c0.2,0,0.4,0,0.5-0.1
			c0.1-0.1,0.2-0.2,0.3-0.4h0.5C39,31.4,38.9,31.6,38.7,31.8z M38.6,29.9c0-0.1-0.1-0.2-0.2-0.3c-0.1-0.1-0.2-0.1-0.3-0.2
			c-0.1,0-0.2-0.1-0.3-0.1c-0.1,0-0.2,0-0.3,0.1c-0.1,0-0.2,0.1-0.3,0.2c-0.1,0.1-0.1,0.2-0.2,0.3c0,0.1-0.1,0.2-0.1,0.3h1.7
			C38.6,30.1,38.6,30,38.6,29.9z"/>
		<path fill="#5B5B5B" d="M41.2,29v0.5h0c0.2-0.4,0.5-0.5,0.9-0.5c0.2,0,0.4,0,0.5,0.1c0.1,0.1,0.2,0.1,0.3,0.2
			c0.1,0.1,0.1,0.2,0.2,0.3c0,0.1,0,0.3,0,0.4V32h-0.5v-2c0-0.2-0.1-0.3-0.2-0.4c-0.1-0.1-0.3-0.2-0.4-0.2c-0.1,0-0.3,0-0.4,0.1
			c-0.1,0-0.2,0.1-0.3,0.2c-0.1,0.1-0.1,0.2-0.2,0.3c0,0.1-0.1,0.2-0.1,0.4V32h-0.5V29H41.2z"/>
		<path fill="#5B5B5B" d="M49.5,29.5c-0.1-0.1-0.3-0.2-0.5-0.2c-0.2,0-0.3,0-0.4,0.1c-0.1,0.1-0.2,0.1-0.3,0.3
			c-0.1,0.1-0.1,0.2-0.2,0.4c0,0.1,0,0.3,0,0.4c0,0.1,0,0.3,0,0.4c0,0.1,0.1,0.2,0.1,0.3c0.1,0.1,0.2,0.2,0.3,0.2
			c0.1,0.1,0.2,0.1,0.4,0.1c0.2,0,0.4-0.1,0.6-0.2c0.1-0.1,0.2-0.3,0.2-0.5h0.5c-0.1,0.4-0.2,0.6-0.4,0.8c-0.2,0.2-0.5,0.3-0.9,0.3
			c-0.2,0-0.4,0-0.6-0.1c-0.2-0.1-0.3-0.2-0.4-0.3c-0.1-0.1-0.2-0.3-0.3-0.5c-0.1-0.2-0.1-0.4-0.1-0.6c0-0.2,0-0.4,0.1-0.6
			c0.1-0.2,0.1-0.4,0.3-0.5c0.1-0.1,0.3-0.3,0.4-0.3c0.2-0.1,0.4-0.1,0.6-0.1c0.2,0,0.3,0,0.5,0.1c0.1,0,0.3,0.1,0.4,0.2
			c0.1,0.1,0.2,0.2,0.3,0.3c0.1,0.1,0.1,0.3,0.1,0.4h-0.5C49.7,29.8,49.6,29.6,49.5,29.5z"/>
		<path fill="#5B5B5B" d="M51.8,29.9c0.1-0.2,0.1-0.3,0.3-0.5c0.1-0.1,0.3-0.2,0.4-0.3c0.2-0.1,0.4-0.1,0.6-0.1c0.2,0,0.4,0,0.6,0.1
			c0.2,0.1,0.3,0.2,0.4,0.3c0.1,0.1,0.2,0.3,0.3,0.5c0.1,0.2,0.1,0.4,0.1,0.6c0,0.2,0,0.4-0.1,0.6c-0.1,0.2-0.2,0.3-0.3,0.5
			c-0.1,0.1-0.3,0.2-0.4,0.3C53.6,32,53.4,32,53.1,32c-0.2,0-0.4,0-0.6-0.1c-0.2-0.1-0.3-0.2-0.4-0.3c-0.1-0.1-0.2-0.3-0.3-0.5
			c-0.1-0.2-0.1-0.4-0.1-0.6C51.7,30.3,51.8,30.1,51.8,29.9z M52.3,31c0,0.1,0.1,0.3,0.2,0.3c0.1,0.1,0.2,0.2,0.3,0.2
			s0.2,0.1,0.4,0.1c0.1,0,0.2,0,0.4-0.1c0.1,0,0.2-0.1,0.3-0.2c0.1-0.1,0.1-0.2,0.2-0.3c0-0.1,0.1-0.3,0.1-0.5c0-0.2,0-0.3-0.1-0.5
			c0-0.1-0.1-0.3-0.2-0.3c-0.1-0.1-0.2-0.2-0.3-0.2c-0.1,0-0.2-0.1-0.4-0.1c-0.1,0-0.2,0-0.4,0.1c-0.1,0-0.2,0.1-0.3,0.2
			c-0.1,0.1-0.1,0.2-0.2,0.3c0,0.1-0.1,0.3-0.1,0.5C52.2,30.7,52.3,30.8,52.3,31z"/>
		<path fill="#5B5B5B" d="M56.7,29v0.6h0c0.1-0.2,0.3-0.4,0.4-0.5c0.2-0.1,0.4-0.2,0.6-0.2v0.5c-0.2,0-0.4,0-0.5,0.1
			c-0.1,0.1-0.2,0.1-0.3,0.2c-0.1,0.1-0.1,0.2-0.2,0.4c0,0.1-0.1,0.3-0.1,0.5V32h-0.5V29H56.7z"/>
		<path fill="#5B5B5B" d="M59.8,29v0.4h0c0.1-0.2,0.2-0.3,0.4-0.4c0.2-0.1,0.4-0.1,0.6-0.1c0.2,0,0.4,0,0.6,0.1
			c0.2,0.1,0.3,0.2,0.4,0.3c0.1,0.1,0.2,0.3,0.3,0.5c0.1,0.2,0.1,0.4,0.1,0.6c0,0.2,0,0.4-0.1,0.6c-0.1,0.2-0.1,0.3-0.2,0.5
			c-0.1,0.1-0.3,0.2-0.4,0.3C61.1,32,60.9,32,60.7,32c-0.1,0-0.2,0-0.2,0c-0.1,0-0.2,0-0.3-0.1c-0.1,0-0.2-0.1-0.2-0.1
			c-0.1-0.1-0.1-0.1-0.2-0.2h0v1.5h-0.5v-4H59.8z M61.5,30.1c0-0.1-0.1-0.2-0.2-0.3c-0.1-0.1-0.2-0.2-0.3-0.2
			c-0.1-0.1-0.2-0.1-0.4-0.1c-0.2,0-0.3,0-0.4,0.1c-0.1,0.1-0.2,0.1-0.3,0.3c-0.1,0.1-0.1,0.2-0.2,0.4c0,0.1,0,0.3,0,0.4
			c0,0.1,0,0.3,0.1,0.4c0,0.1,0.1,0.3,0.2,0.4c0.1,0.1,0.2,0.2,0.3,0.2c0.1,0.1,0.3,0.1,0.4,0.1c0.2,0,0.3,0,0.4-0.1
			c0.1-0.1,0.2-0.1,0.3-0.3c0.1-0.1,0.1-0.2,0.1-0.4c0-0.1,0-0.3,0-0.4C61.5,30.3,61.5,30.2,61.5,30.1z"/>
		<path fill="#5B5B5B" d="M63.7,29.9c0.1-0.2,0.2-0.3,0.3-0.5c0.1-0.1,0.3-0.2,0.4-0.3C64.6,29,64.8,29,65,29c0.2,0,0.4,0,0.6,0.1
			c0.2,0.1,0.3,0.2,0.4,0.3c0.1,0.1,0.2,0.3,0.3,0.5c0.1,0.2,0.1,0.4,0.1,0.6c0,0.2,0,0.4-0.1,0.6c-0.1,0.2-0.2,0.3-0.3,0.5
			c-0.1,0.1-0.3,0.2-0.4,0.3C65.4,32,65.2,32,65,32c-0.2,0-0.4,0-0.6-0.1c-0.2-0.1-0.3-0.2-0.4-0.3c-0.1-0.1-0.2-0.3-0.3-0.5
			c-0.1-0.2-0.1-0.4-0.1-0.6C63.6,30.3,63.6,30.1,63.7,29.9z M64.1,31c0,0.1,0.1,0.3,0.2,0.3c0.1,0.1,0.2,0.2,0.3,0.2
			c0.1,0,0.2,0.1,0.4,0.1c0.1,0,0.2,0,0.4-0.1c0.1,0,0.2-0.1,0.3-0.2c0.1-0.1,0.1-0.2,0.2-0.3c0-0.1,0.1-0.3,0.1-0.5
			c0-0.2,0-0.3-0.1-0.5c0-0.1-0.1-0.3-0.2-0.3c-0.1-0.1-0.2-0.2-0.3-0.2c-0.1,0-0.2-0.1-0.4-0.1c-0.1,0-0.2,0-0.4,0.1
			c-0.1,0-0.2,0.1-0.3,0.2c-0.1,0.1-0.1,0.2-0.2,0.3c0,0.1-0.1,0.3-0.1,0.5C64.1,30.7,64.1,30.8,64.1,31z"/>
		<path fill="#5B5B5B" d="M68.5,29v0.6h0c0.1-0.2,0.3-0.4,0.4-0.5c0.2-0.1,0.4-0.2,0.6-0.2v0.5c-0.2,0-0.4,0-0.5,0.1
			c-0.1,0.1-0.2,0.1-0.3,0.2c-0.1,0.1-0.1,0.2-0.2,0.4c0,0.1-0.1,0.3-0.1,0.5V32h-0.5V29H68.5z"/>
		<path fill="#5B5B5B" d="M73.3,32c-0.1,0-0.2,0-0.3-0.1c-0.1-0.1-0.1-0.2-0.1-0.3c-0.1,0.2-0.3,0.3-0.5,0.3
			C72.3,32,72.1,32,71.9,32c-0.1,0-0.3,0-0.4,0c-0.1,0-0.2-0.1-0.3-0.1c-0.1-0.1-0.2-0.2-0.2-0.3c-0.1-0.1-0.1-0.2-0.1-0.4
			c0-0.2,0-0.3,0.1-0.4c0.1-0.1,0.1-0.2,0.2-0.3c0.1-0.1,0.2-0.1,0.3-0.2c0.1,0,0.2-0.1,0.4-0.1c0.1,0,0.3,0,0.4-0.1
			c0.1,0,0.2,0,0.3-0.1c0.1,0,0.2-0.1,0.2-0.1c0.1,0,0.1-0.1,0.1-0.2c0-0.1,0-0.2-0.1-0.3c0-0.1-0.1-0.1-0.2-0.1
			c-0.1,0-0.1-0.1-0.2-0.1c-0.1,0-0.2,0-0.2,0c-0.2,0-0.4,0-0.5,0.1c-0.1,0.1-0.2,0.2-0.2,0.4h-0.5c0-0.2,0-0.3,0.1-0.5
			c0.1-0.1,0.2-0.2,0.3-0.3c0.1-0.1,0.2-0.1,0.4-0.2c0.1,0,0.3-0.1,0.5-0.1c0.1,0,0.3,0,0.4,0c0.1,0,0.2,0.1,0.4,0.1
			c0.1,0.1,0.2,0.1,0.3,0.2c0.1,0.1,0.1,0.2,0.1,0.4v1.5c0,0.1,0,0.2,0,0.2c0,0.1,0.1,0.1,0.1,0.1c0,0,0.1,0,0.1,0v0.4
			C73.6,32,73.5,32,73.3,32z M72.7,30.5c-0.1,0-0.2,0-0.3,0.1c-0.1,0-0.2,0-0.3,0c-0.1,0-0.2,0-0.3,0.1c-0.1,0-0.2,0.1-0.2,0.2
			c-0.1,0.1-0.1,0.2-0.1,0.3c0,0.1,0,0.1,0,0.2c0,0.1,0.1,0.1,0.1,0.1c0.1,0,0.1,0.1,0.2,0.1c0.1,0,0.1,0,0.2,0c0.2,0,0.3,0,0.4-0.1
			c0.1,0,0.2-0.1,0.3-0.2c0.1-0.1,0.1-0.1,0.2-0.2c0-0.1,0.1-0.1,0.1-0.2v-0.5C72.8,30.5,72.8,30.5,72.7,30.5z"/>
		<path fill="#5B5B5B" d="M76.5,29v0.4h-0.6v1.8c0,0.1,0,0.1,0,0.1c0,0,0,0.1,0.1,0.1c0,0,0.1,0,0.1,0c0,0,0.1,0,0.2,0h0.2V32h-0.4
			c-0.1,0-0.2,0-0.3,0c-0.1,0-0.2,0-0.2-0.1c-0.1,0-0.1-0.1-0.1-0.2c0-0.1,0-0.2,0-0.3v-1.9h-0.5V29h0.5v-0.9h0.5V29H76.5z"/>
		<path fill="#5B5B5B" d="M78.2,28.5v-0.6h0.5v0.6H78.2z M78.7,29V32h-0.5V29H78.7z"/>
		<path fill="#5B5B5B" d="M81.3,32L80.3,29h0.5l0.8,2.4h0l0.8-2.4h0.5L81.9,32H81.3z"/>
		<path fill="#5B5B5B" d="M86.7,32c-0.1,0-0.2,0-0.3-0.1c-0.1-0.1-0.1-0.2-0.1-0.3c-0.1,0.2-0.3,0.3-0.5,0.3
			C85.7,32,85.5,32,85.3,32c-0.1,0-0.3,0-0.4,0c-0.1,0-0.2-0.1-0.3-0.1c-0.1-0.1-0.2-0.2-0.2-0.3c-0.1-0.1-0.1-0.2-0.1-0.4
			c0-0.2,0-0.3,0.1-0.4c0.1-0.1,0.1-0.2,0.2-0.3c0.1-0.1,0.2-0.1,0.3-0.2c0.1,0,0.2-0.1,0.4-0.1c0.1,0,0.3,0,0.4-0.1
			c0.1,0,0.2,0,0.3-0.1c0.1,0,0.2-0.1,0.2-0.1c0.1,0,0.1-0.1,0.1-0.2c0-0.1,0-0.2-0.1-0.3c0-0.1-0.1-0.1-0.2-0.1
			c-0.1,0-0.1-0.1-0.2-0.1c-0.1,0-0.2,0-0.2,0c-0.2,0-0.4,0-0.5,0.1c-0.1,0.1-0.2,0.2-0.2,0.4h-0.5c0-0.2,0-0.3,0.1-0.5
			c0.1-0.1,0.2-0.2,0.3-0.3c0.1-0.1,0.2-0.1,0.4-0.2c0.1,0,0.3-0.1,0.5-0.1c0.1,0,0.3,0,0.4,0c0.1,0,0.2,0.1,0.4,0.1
			c0.1,0.1,0.2,0.1,0.3,0.2c0.1,0.1,0.1,0.2,0.1,0.4v1.5c0,0.1,0,0.2,0,0.2c0,0.1,0.1,0.1,0.1,0.1c0,0,0.1,0,0.1,0v0.4
			C87,32,86.9,32,86.7,32z M86.1,30.5c-0.1,0-0.2,0-0.3,0.1c-0.1,0-0.2,0-0.3,0c-0.1,0-0.2,0-0.3,0.1c-0.1,0-0.2,0.1-0.2,0.2
			c-0.1,0.1-0.1,0.2-0.1,0.3c0,0.1,0,0.1,0,0.2c0,0.1,0.1,0.1,0.1,0.1c0.1,0,0.1,0.1,0.2,0.1c0.1,0,0.1,0,0.2,0c0.2,0,0.3,0,0.4-0.1
			c0.1,0,0.2-0.1,0.3-0.2c0.1-0.1,0.1-0.1,0.2-0.2c0-0.1,0.1-0.1,0.1-0.2v-0.5C86.2,30.5,86.2,30.5,86.1,30.5z"/>
	</g>
	<g>
		<path fill="#5B5B5B" d="M13.5,11.4c1-1,1.9-1.5,2.7-1.5c0.5,0,0.9,0.2,1.2,0.5c0.3,0.3,0.5,0.7,0.5,1.1c0,0.4-0.1,0.7-0.3,0.9
			c-0.2,0.2-0.5,0.4-0.8,0.4c-0.6,0-0.9-0.3-1.1-1c-0.1-0.3-0.2-0.4-0.4-0.4c-0.3,0-0.7,0.2-1.1,0.7c0.4,0.6,0.7,1.1,0.9,1.5
			c0.2,0.4,0.2,0.9,0.2,1.4c0,0.9-0.2,1.6-0.6,2.3c-0.4,0.7-1.1,1.2-2,1.7c-1,0.5-1.9,0.7-2.7,0.7H8.2c-1.1,0-1.9,0.1-2.3,0.4
			c-0.4,0.2-0.6,0.6-0.6,1.1c0,0.4,0.2,0.7,0.5,0.9c0.3,0.2,0.9,0.3,1.7,0.3l3.6-0.1c1.8,0,3.1,0.3,4,0.9c0.8,0.6,1.2,1.4,1.2,2.5
			c0,1.2-0.5,2.2-1.4,3c-1.3,1.1-3.2,1.7-5.7,1.7c-2.1,0-3.7-0.4-4.7-1.2c-0.8-0.6-1.2-1.3-1.2-2c0-0.6,0.3-1.1,0.8-1.6
			c0.5-0.5,1.4-0.8,2.6-1.1c-1-0.2-1.7-0.6-2.2-1c-0.5-0.5-0.7-1-0.7-1.7C3.8,21,4,20.5,4.4,20s1.1-0.9,2.1-1.2
			c-0.8-0.5-1.5-1-1.9-1.7C4.2,16.5,4,15.8,4,14.9c0-1.3,0.5-2.4,1.6-3.3c1-0.9,2.4-1.3,4.1-1.3c0.7,0,1.3,0.1,2,0.3
			C12.2,10.7,12.9,11,13.5,11.4z M10.5,24.4c-1.8,0-3.1,0.2-3.9,0.7c-0.8,0.5-1.1,1.1-1.1,1.8c0,0.7,0.3,1.2,0.9,1.6
			c0.8,0.5,1.8,0.8,3.3,0.8c1.7,0,2.9-0.3,3.8-0.8c0.8-0.6,1.3-1.2,1.3-1.9c0-0.4-0.1-0.8-0.4-1.1c-0.3-0.3-0.7-0.6-1.3-0.8
			C12.4,24.5,11.6,24.4,10.5,24.4z M9.6,11.2c-0.9,0-1.6,0.3-2.2,1c-0.6,0.6-0.9,1.5-0.9,2.7c0,1.2,0.3,2.2,0.9,2.9
			c0.6,0.7,1.3,1,2.2,1c0.9,0,1.6-0.3,2.2-1c0.6-0.7,0.8-1.6,0.8-2.8c0-1.1-0.3-2-0.9-2.7C11.2,11.5,10.5,11.2,9.6,11.2z"/>
		<path fill="#5B5B5B" d="M25.1,2.5v19.9c0,0.3,0.1,0.5,0.2,0.6c0.2,0.2,0.5,0.3,0.9,0.3h1.5v1.1H20v-1.1h1.4c0.5,0,0.8-0.1,1-0.3
			c0.2-0.2,0.3-0.5,0.3-0.9V5.3c0-0.5-0.1-0.8-0.4-1.1c-0.4-0.3-0.8-0.5-1.3-0.5h-1.2V2.7L25.1,2.5z"/>
		<path fill="#5B5B5B" d="M36.8,10.2c1.8,0,3.4,0.7,4.7,2c1.3,1.3,1.9,3.1,1.9,5.3c0,1.5-0.3,2.8-0.8,3.8c-0.6,1.1-1.4,1.9-2.4,2.5
			c-1,0.6-2.2,0.9-3.4,0.9c-1.8,0-3.3-0.7-4.5-2c-1.2-1.3-1.9-3.1-1.9-5.2c0-2.2,0.6-3.9,1.9-5.3C33.4,10.9,35,10.2,36.8,10.2z
			 M36.8,11.3c-1.1,0-2,0.5-2.7,1.5c-0.7,1-1.1,2.6-1.1,4.7c0,2.2,0.3,3.8,1,4.8c0.7,1,1.6,1.5,2.7,1.5c1.1,0,2.1-0.5,2.8-1.5
			c0.7-1,1.1-2.7,1.1-4.9c0-2.1-0.4-3.7-1-4.6C38.9,11.8,38,11.3,36.8,11.3z"/>
		<path fill="#5B5B5B" d="M50.5,2.5v10.2c0.6-0.8,1.2-1.4,1.9-1.8c0.7-0.4,1.5-0.6,2.3-0.6c1.6,0,3,0.6,4.1,1.9
			c1.1,1.3,1.7,2.9,1.7,5c0,2.2-0.6,4-1.8,5.4c-1.2,1.4-2.7,2.1-4.5,2.1c-0.8,0-1.6-0.2-2.3-0.5c-0.7-0.3-1.4-0.9-2.1-1.7
			c-0.6,0.9-1.1,1.6-1.6,2.2l-0.6-0.2c0.3-1.1,0.4-2.3,0.4-3.5V5.3c0-0.5-0.2-0.9-0.5-1.1c-0.3-0.3-0.8-0.4-1.4-0.4h-0.6V2.7
			L50.5,2.5z M54.2,11.6c-1.1,0-2,0.5-2.7,1.4c-0.7,1-1,2.6-1,4.8c0,2.1,0.3,3.6,1,4.5c0.7,0.9,1.6,1.4,2.7,1.4c1,0,1.8-0.4,2.4-1.3
			c0.8-1.1,1.1-2.7,1.1-4.8c0-2.1-0.3-3.6-1-4.5C56,12,55.2,11.6,54.2,11.6z"/>
		<path fill="#5B5B5B" d="M78.3,22.9l0.5,0.8c-0.7,0.7-1.5,1.1-2.4,1.1c-0.7,0-1.2-0.2-1.7-0.5c-0.5-0.4-0.9-1-1.2-1.9
			c-0.9,1-1.7,1.6-2.4,2c-0.7,0.3-1.5,0.5-2.5,0.5c-1.4,0-2.5-0.3-3.2-0.9c-0.7-0.6-1.1-1.4-1.1-2.3c0-1.4,0.8-2.6,2.5-3.6
			c1.7-0.9,3.9-1.6,6.7-1.9V14c0-0.7-0.3-1.4-0.9-1.9c-0.6-0.5-1.4-0.8-2.3-0.8c-0.9,0-1.6,0.2-2.2,0.5c-0.4,0.3-0.7,0.5-0.7,0.8
			c0,0.1,0.1,0.4,0.4,0.7c0.3,0.4,0.4,0.7,0.4,1c0,0.4-0.1,0.8-0.4,1.1c-0.3,0.3-0.7,0.4-1.1,0.4c-0.5,0-0.9-0.2-1.2-0.5
			C65.2,15,65,14.6,65,14.1c0-1,0.5-1.9,1.6-2.7c1.1-0.8,2.5-1.2,4.3-1.2c1.6,0,2.9,0.4,3.7,1.1c0.9,0.7,1.3,1.6,1.3,2.6v7.5
			c0,0.7,0.1,1.2,0.3,1.5c0.2,0.3,0.5,0.5,0.8,0.5C77.5,23.4,77.9,23.2,78.3,22.9z M73.5,17.1c-2.5,0.3-4.2,0.9-5.3,1.7
			c-0.8,0.6-1.2,1.4-1.2,2.5c0,0.8,0.2,1.3,0.6,1.8c0.4,0.4,0.9,0.6,1.6,0.6c1.2,0,2.2-0.4,3-1.3c0.8-0.9,1.3-2,1.3-3.3V17.1z"/>
		<path fill="#5B5B5B" d="M86.6,2.5v19.9c0,0.3,0.1,0.5,0.3,0.6c0.2,0.2,0.5,0.3,0.9,0.3h1.5v1.1h-7.8v-1.1h1.4c0.4,0,0.8-0.1,1-0.3
			c0.2-0.2,0.3-0.5,0.3-0.9V5.3c0-0.5-0.1-0.8-0.4-1.1c-0.4-0.3-0.8-0.5-1.3-0.5h-1.2V2.7L86.6,2.5z"/>
		<path fill="#5B5B5B" d="M92.2,10.7l5.6-0.4c0.2,0.9,0.4,1.8,0.4,2.7c0.6-0.9,1.3-1.6,2.2-2.2c0.9-0.5,1.9-0.8,3-0.8
			c1.8,0,3.2,0.6,4.3,1.9c1.1,1.3,1.6,3,1.6,5.4c0,1.6-0.3,3-0.8,4.1c-0.5,1.1-1.3,2-2.2,2.5c-0.9,0.6-2,0.9-3.3,0.9
			c-1,0-1.9-0.2-2.7-0.7c-0.8-0.5-1.5-1.2-2.2-2.2v4.9c0,0.6,0,1.1,0.1,1.2c0.1,0.2,0.3,0.3,0.6,0.4c0.3,0.1,0.8,0.1,1.6,0.2v1.4
			h-8.3v-1.4h0.4c0.5,0,0.9,0,1-0.1c0.2-0.1,0.3-0.3,0.4-0.5c0.1-0.2,0.1-0.6,0.1-1.2v-13c0-0.6,0-1.1-0.1-1.3
			c-0.1-0.2-0.2-0.4-0.4-0.5C93.4,12.1,93,12,92.2,12V10.7z M101.6,12.2c-0.9,0-1.8,0.5-2.4,1.4c-0.7,0.9-1,2.2-1,4
			c0,1.7,0.3,3.1,1,4c0.7,0.9,1.5,1.4,2.4,1.4c0.9,0,1.6-0.4,2.1-1.2c0.7-1,1.1-2.5,1.1-4.2c0-1.6-0.3-2.9-0.9-3.9
			C103.4,12.6,102.6,12.2,101.6,12.2z"/>
		<path fill="#5B5B5B" d="M129,22.7l0.6,1.1c-0.6,0.4-1.1,0.7-1.6,0.8c-0.5,0.2-1,0.2-1.6,0.2c-0.8,0-1.5-0.2-2-0.5
			c-0.5-0.4-1-1-1.4-2c-1,1-1.9,1.7-2.7,2c-0.8,0.4-1.7,0.5-2.7,0.5c-1.4,0-2.5-0.3-3.2-1c-0.8-0.6-1.2-1.4-1.2-2.4
			c0-1.5,0.7-2.7,2.1-3.5c1.1-0.7,3.7-1.4,7.5-2.1v-2c0-0.8-0.3-1.4-0.8-1.9c-0.5-0.5-1.2-0.7-2.1-0.7c-0.7,0-1.3,0.1-1.8,0.4
			c-0.3,0.2-0.5,0.4-0.5,0.6c0,0.1,0.1,0.2,0.2,0.4c0.3,0.4,0.4,0.9,0.4,1.3c0,0.5-0.2,1-0.5,1.3c-0.4,0.3-0.8,0.5-1.5,0.5
			c-0.6,0-1.2-0.2-1.6-0.6c-0.4-0.4-0.6-0.8-0.6-1.4c0-0.9,0.5-1.8,1.5-2.5c1.3-0.9,2.9-1.3,4.8-1.3c1.4,0,2.7,0.2,3.8,0.7
			c0.7,0.3,1.3,0.8,1.7,1.5c0.4,0.7,0.7,1.6,0.7,2.6v7c0,0.5,0.1,0.9,0.3,1.1c0.2,0.2,0.5,0.4,0.8,0.4C128.1,23.1,128.5,23,129,22.7
			z M122.9,17.1c-2.1,0.3-3.5,0.7-4.2,1.3c-0.7,0.6-1.1,1.4-1.1,2.3c0,0.7,0.2,1.2,0.5,1.6c0.3,0.4,0.8,0.5,1.5,0.5
			c1,0,1.8-0.3,2.4-1c0.6-0.7,1-1.6,1-2.8V17.1z"/>
		<path fill="#5B5B5B" d="M141.8,23v1.4h-9.6V23h1.2c0.5,0,0.8-0.1,1.1-0.3c0.2-0.2,0.3-0.4,0.3-0.8v-8.1c0-0.7-0.1-1.1-0.4-1.4
			c-0.3-0.3-0.7-0.5-1.3-0.5h-0.8v-1.3l5.9-0.3v4.5c0.3-1.5,0.9-2.6,1.8-3.4c0.8-0.8,1.8-1.2,2.9-1.2c0.9,0,1.6,0.2,2.2,0.7
			c0.5,0.5,0.8,1.1,0.8,1.9c0,0.7-0.2,1.2-0.5,1.6c-0.4,0.4-0.8,0.6-1.3,0.6c-0.5,0-0.9-0.2-1.2-0.5c-0.3-0.4-0.5-0.8-0.5-1.3
			c0-0.3,0.1-0.6,0.2-1c0.1-0.2,0.1-0.3,0.1-0.4c0-0.1,0-0.2-0.1-0.3c-0.1-0.1-0.2-0.1-0.3-0.1c-0.4,0-0.7,0.2-1.2,0.6
			c-0.6,0.6-1.2,1.6-1.6,3c-0.4,1.3-0.7,2.7-0.7,4.1v3c0,0.3,0.1,0.6,0.3,0.8c0.2,0.2,0.4,0.3,0.8,0.3H141.8z"/>
		<path fill="#5B5B5B" d="M148.3,2.6l6.5-0.2v15.1l4.1-3.3c0.6-0.5,1-1,1-1.3c0-0.2-0.1-0.4-0.4-0.6c-0.3-0.2-0.7-0.3-1.3-0.3h-0.5
			v-1.3h8V12c-0.9,0-1.5,0.1-2,0.3c-0.7,0.2-1.3,0.6-1.9,1.1l-2.3,1.9l5.1,6.9c0.4,0.5,0.9,0.8,1.5,0.8h0.7v1.4h-8.6V23h0.8
			c0.4,0,0.7,0,0.9-0.1c0.2-0.1,0.2-0.2,0.2-0.3c0-0.1,0-0.2-0.1-0.3l-3.3-4.6l-1.9,1.5v2.7c0,0.4,0.1,0.7,0.3,0.9
			c0.2,0.2,0.5,0.3,0.9,0.3h1v1.4h-8.4V23h1c0.5,0,0.9-0.1,1.1-0.4c0.2-0.2,0.3-0.6,0.3-1.1V5.1c0-0.4-0.1-0.7-0.3-0.8
			c-0.2-0.2-0.6-0.3-1-0.3h-1.3V2.6z"/>
	</g>
</g>
</svg>
